<?xml version="1.0" standalone="no"?><!DOCTYPE svg PUBLIC "-//W3C//DTD SVG 1.1//EN" "http://www.w3.org/Graphics/SVG/1.1/DTD/svg11.dtd" ><svg xmlns="http://www.w3.org/2000/svg"><metadata></metadata><defs><font id="Founder:FZQingKeBenYueSongS-R-GB	Regular" horiz-adv-x="256"><font-face font-family="FZQingKeBenYueSongS-R-GB" font-weight="400" font-stretch="normal" units-per-em="256" panose-1="2 0 0 0 0 0 0 0 0 0" ascent="221" descent="-60" x-height="0" bbox="0 -38 262 218" underline-thickness="12" underline-position="-48" unicode-range="U+002a-ff0c" /><missing-glyph horiz-adv-x="256" d="M29 34 q15 -1 16 -18 q-1 -16 -16 -17 q-15 1 -16 17 q1 17 16 18 ZM32 53 l-6 0 q-2 56 -8 84 q-5 19 -5 31 q0 13 17 13 q16 0 16 -14 q0 -11 -5 -30 q-6 -34 -9 -84 Z" /><glyph glyph-name="" unicode="*" d="M54 91 l-21 -26 q-5 -5 -9 -5 q-10 4 -11 21 q0 5 7 7 l32 9 l-30 11 q-9 2 -8 7 q2 19 12 21 q4 0 7 -5 l21 -28 l-8 39 q-1 7 -1 10 q0 11 11 11 q12 0 12 -11 q0 -1 0 -4 q-1 -4 -1 -6 l-8 -39 l21 27 q5 6 8 6 q10 -3 13 -20 q0 -5 -7 -7 l-33 -12 l32 -11 q7 -2 7 -8 q-2 -16 -12 -20 q-3 0 -8 6 l-21 27 l7 -37 q1 -3 1 -7 q1 -3 1 -4 q0 -12 -12 -12 q-12 0 -12 12 q0 1 1 5 q1 3 1 5 l8 38 Z" /><glyph glyph-name="" unicode="+" d="M62 36 l-14 0 l0 48 l-36 0 l0 13 l36 0 l0 46 l14 0 l0 -46 l36 0 l0 -13 l-36 0 l0 -48 Z" /><glyph glyph-name="" unicode="0" d="M57 180 q44 -1 44 -91 q0 -91 -44 -91 q-45 -1 -45 91 q0 91 45 91 ZM57 172 q-21 1 -21 -83 q0 -86 21 -83 q21 -2 21 83 q1 86 -21 83 Z" /><glyph glyph-name="" unicode="1" d="M77 3 l-66 0 l0 6 q23 -1 22 27 l0 101 q1 25 -20 25 l0 6 l43 12 l0 -143 q-2 -30 21 -28 l0 -6 Z" /><glyph glyph-name="" unicode="3" d="M38 89 l0 9 q35 4 35 41 q0 33 -19 34 q-15 -1 -17 -17 q10 -23 -11 -27 q-13 0 -13 17 q3 33 42 35 q40 -2 42 -43 q0 -31 -39 -44 q43 -10 41 -48 q-1 -47 -45 -48 q-44 3 -44 33 q1 18 15 19 q22 -5 11 -28 q5 -16 18 -16 q21 2 22 40 q1 42 -38 43 Z" /><glyph glyph-name="" unicode="4" d="M98 3 l-52 0 l0 7 q15 -1 14 20 l0 19 l-51 0 l0 11 l57 117 l17 0 l0 -117 l17 0 l0 -11 l-17 0 l0 -18 q-1 -23 15 -21 l0 -7 ZM60 60 l0 83 l-41 -83 l41 0 Z" /><glyph glyph-name="" unicode="5" d="M22 177 l70 0 l0 -27 l-63 0 l-4 -57 q13 16 31 16 q40 -4 43 -53 q-1 -55 -47 -57 q-39 1 -41 31 q1 17 14 18 q22 -5 10 -27 q5 -14 17 -14 q23 2 24 48 q0 44 -27 44 q-16 0 -26 -25 l-7 2 l6 101 Z" /><glyph glyph-name="" unicode="9" d="M52 7 q20 -2 24 74 q-11 -16 -27 -16 q-36 2 -37 55 q1 58 43 60 q41 -5 44 -85 q0 -97 -48 -97 q-33 2 -36 28 q1 17 14 18 q22 -3 12 -27 q3 -10 11 -10 ZM55 172 q-19 -2 -20 -51 q0 -43 20 -44 q21 0 21 46 q-1 47 -21 49 Z" /><glyph glyph-name="" unicode="a" d="M91 3 l0 7 q22 0 17 14 l-10 36 l-50 0 l-11 -36 q-5 -13 19 -14 l0 -7 l-48 0 l0 7 q15 -1 20 15 l48 152 l13 1 l44 -145 q6 -23 23 -23 l0 -7 l-65 0 ZM51 70 l44 0 l-21 74 l-23 -74 Z" /><glyph glyph-name="" unicode="d" d="M9 177 l57 0 q78 0 77 -86 q1 -89 -76 -88 l-58 0 l0 8 q18 -2 17 22 l0 112 q1 26 -17 24 l0 8 ZM49 11 l18 0 q51 1 52 79 q0 79 -53 79 l-17 0 l0 -158 Z" /><glyph glyph-name="" unicode="e" d="M25 33 l0 112 q1 25 -18 24 l0 8 l105 0 l3 -42 l-6 -2 q-7 40 -34 36 l-27 0 l0 -72 l19 0 q23 -2 23 25 l7 0 l0 -60 l-7 0 q-1 29 -23 27 l-19 0 l0 -78 l31 0 q21 -5 33 41 l6 -1 l-4 -48 l-107 0 l0 8 q19 -1 18 22 Z" /><glyph glyph-name="" unicode="f" d="M26 36 l0 108 q1 27 -17 25 l0 8 l103 0 l4 -44 l-8 -2 q-7 42 -31 38 l-28 0 l0 -72 l22 0 q19 -2 20 24 l7 0 l0 -58 l-7 0 q-2 28 -20 26 l-22 0 l0 -52 q-2 -28 19 -26 l0 -8 l-60 0 l0 8 q19 -1 18 25 Z" /><glyph glyph-name="" unicode="h" d="M94 3 l0 8 q18 -3 16 26 l0 54 l-61 0 l0 -55 q-1 -27 17 -25 l0 -8 l-57 0 l0 8 q19 -2 18 25 l0 106 q2 30 -17 27 l0 8 l55 0 l0 -8 q-18 3 -16 -27 l0 -43 l61 0 l0 43 q1 29 -16 27 l0 8 l55 0 l0 -8 q-18 3 -16 -27 l0 -105 q-2 -29 17 -26 l0 -8 l-56 0 Z" /><glyph glyph-name="" unicode="i" d="M9 177 l60 0 l0 -8 q-20 2 -19 -27 l0 -106 q-1 -27 19 -25 l0 -8 l-61 0 l0 8 q20 -2 19 25 l0 106 q1 29 -18 27 l0 8 Z" /><glyph glyph-name="" unicode="l" d="M115 58 l-4 -55 l-104 0 l0 8 q21 -3 19 25 l0 108 q1 27 -18 25 l0 8 l58 0 l0 -8 q-18 2 -17 -24 l0 -134 l26 0 q23 -5 33 49 l7 -2 Z" /><glyph glyph-name="" unicode="p" d="M25 36 l0 108 q1 27 -17 25 l0 8 l59 0 q55 0 55 -48 q1 -54 -54 -53 l-20 0 l0 -39 q-1 -28 19 -26 l0 -8 l-59 0 l0 8 q18 -2 17 25 ZM48 83 l13 0 q36 1 37 45 q0 41 -37 41 l-13 0 l0 -86 Z" /><glyph glyph-name="" unicode="q" d="M147 2 l2 -7 q-16 -12 -29 -12 q-16 0 -28 18 q-7 -3 -15 -2 q-65 3 -67 89 q3 88 66 93 q65 -3 67 -92 q0 -49 -29 -77 q8 -16 21 -15 q4 0 12 5 ZM44 37 q8 26 26 25 q18 4 37 -39 q12 27 12 65 q0 85 -43 85 q-40 -2 -41 -83 q0 -31 9 -53 ZM77 7 q2 0 7 1 q3 0 4 0 q-17 42 -26 38 q-8 0 -14 -21 q9 -17 29 -18 Z" /><glyph glyph-name="" unicode="w" d="M51 145 l21 -105 l33 133 l16 0 l30 -132 l22 101 q7 28 -17 27 l0 8 l45 0 l0 -8 q-15 2 -22 -33 l-29 -133 l-14 0 l-32 137 l-34 -137 l-13 0 l-30 139 q-5 27 -20 27 l0 8 l59 0 l0 -8 q-22 2 -15 -24 Z" /><glyph glyph-name="" unicode="i" d="M10 107 l0 7 l35 10 l0 -90 q-1 -25 15 -23 l0 -8 l-51 0 l0 8 q16 -2 15 23 l0 53 q0 21 -14 20 ZM35 178 q12 -2 13 -16 q0 -16 -13 -17 q-13 1 -14 17 q1 15 14 16 Z" /><glyph glyph-name="" unicode="m" d="M157 3 l-44 0 l0 8 q12 -1 11 19 l0 53 q0 28 -13 28 q-17 -5 -19 -34 l0 -46 q0 -21 11 -20 l0 -8 l-43 0 l0 8 q12 -2 11 20 l0 49 q0 31 -12 31 q-16 -5 -18 -40 l0 -41 q-1 -21 11 -19 l0 -8 l-45 0 l0 8 q12 -1 11 19 l0 57 q1 21 -11 19 l0 8 l34 10 l0 -22 q9 22 27 21 q17 0 23 -25 q11 25 28 25 q27 -1 27 -38 l0 -55 q-1 -20 11 -19 l0 -8 Z" /><glyph glyph-name="" unicode="|" d="M28 -31 l-13 0 l0 229 l13 0 l0 -229 Z" /><glyph glyph-name="" unicode="&#x201c;" d="M223 204 l4 -8 q-17 -12 -17 -25 q17 2 17 -18 q-1 -18 -15 -19 q-16 1 -16 24 q0 29 27 46 ZM185 203 l4 -8 q-16 -11 -17 -25 q17 2 17 -18 q-1 -17 -15 -18 q-16 0 -16 23 q0 31 27 46 Z" /><glyph glyph-name="" unicode="&#x201d;" d="M34 134 l-5 8 q16 11 18 25 q-18 -3 -18 18 q1 17 16 18 q15 -1 15 -23 q1 -30 -26 -46 ZM71 134 l-4 8 q15 10 17 24 q-17 -1 -17 18 q1 18 15 19 q15 -1 16 -24 q0 -29 -27 -45 Z" /><glyph glyph-name="" unicode="&#x3002;" d="M53 13 l0 -8 q-1 -24 11 -23 q11 -1 11 24 l0 8 q0 21 -11 21 q-11 -1 -11 -22 ZM63 42 q27 -2 28 -32 q-1 -34 -28 -35 q-26 1 -27 33 q2 32 27 34 Z" /><glyph glyph-name="" unicode="&#x4e00;" d="M54 95 q-26 -2 -32 -4 l-10 10 l190 4 l18 18 l20 -20 q1 -3 -2 -3 l-184 -5 Z" /><glyph glyph-name="" unicode="&#x4e0a;" d="M59 -18 q-26 0 -36 -4 l-11 9 l95 3 l1 177 l-2 46 l32 -9 q3 0 1 -4 q-5 -3 -6 -10 l-1 -75 l58 1 l15 17 l19 -19 q2 -2 -1 -2 l-91 -3 l-1 -119 l70 1 l18 18 l21 -19 q1 -3 -2 -3 l-179 -5 Z" /><glyph glyph-name="" unicode="&#x4e0b;" d="M48 184 q-18 -1 -27 -3 l-9 9 l192 3 l17 17 l21 -20 q1 -1 1 -2 q0 -1 -2 -1 l-123 -2 l16 -6 q1 0 1 -3 l-1 -12 l0 -113 l1 -47 q-3 -18 -24 -31 q-4 -1 -5 5 l2 68 l1 111 q-1 16 -3 28 l-58 -1 ZM154 131 q60 -27 65 -41 q3 -18 -15 -30 q-8 -4 -10 3 q-13 39 -42 66 q0 3 2 2 Z" /><glyph glyph-name="" unicode="&#x4e0d;" d="M68 179 q-16 -1 -27 -3 l-9 10 l177 2 l16 17 l18 -19 q1 -3 -1 -3 l-80 -2 l14 -13 q1 -2 -3 -4 q4 2 -1 -1 q-8 -12 -17 -22 l1 -139 q-2 -17 -21 -28 q-5 -1 -5 4 l1 42 l1 93 q-59 -63 -126 -100 q-2 -1 -3 0 q0 1 1 3 q78 50 123 130 q0 2 -1 6 q1 -2 -1 2 q1 3 4 2 l3 -2 q8 14 14 27 l-78 -2 ZM184 112 q45 -19 58 -43 q7 -17 -9 -30 q-11 -2 -13 7 q-8 35 -37 64 q-1 1 1 2 Z" /><glyph glyph-name="" unicode="&#x4e0e;" d="M194 112 l11 14 l23 -14 q2 0 0 -2 l-8 -11 q-7 -72 -22 -102 q-9 -17 -41 -29 q-2 -1 -3 -1 q-1 1 -1 3 q3 16 -9 21 q-1 1 -1 3 q1 1 2 0 q11 0 18 0 q22 2 31 112 l-113 -2 q-5 -14 -22 -21 q-4 -2 -5 3 l15 86 q3 29 3 42 l28 -11 q2 -1 0 -3 l-3 -4 l-5 -26 l104 2 l15 16 l21 -19 q2 -1 0 -2 l-141 -3 l-9 -54 l112 2 ZM48 50 q-14 -1 -27 -3 l-8 8 l127 2 l16 16 l18 -17 q2 -2 0 -3 l-126 -3 Z" /><glyph glyph-name="" unicode="&#x4e13;" d="M73 160 q-15 0 -28 -2 l-8 7 l66 1 l5 20 l5 29 l26 -10 q3 -2 0 -5 q-6 -4 -7 -14 l-5 -20 l61 0 l13 13 l16 -14 q1 -2 1 -2 q-1 -1 -2 -1 l-90 -1 l-8 -38 l98 1 l16 16 l17 -17 q2 -2 -1 -2 l-132 -3 l-4 -22 l-3 -12 l65 1 l10 11 l24 -18 q2 -1 0 -3 l-9 -6 q-22 -21 -59 -50 q20 -9 28 -16 q7 -9 -2 -29 q-5 -9 -13 2 q-25 33 -66 58 q-1 2 1 3 q2 -1 5 -2 q28 -9 42 -15 q21 30 38 60 l-65 -1 q-9 -11 -23 -16 q-5 -1 -5 2 l11 40 l2 13 l-45 -2 q-19 0 -28 -2 l-8 7 l82 1 l8 39 l-29 -1 Z" /><glyph glyph-name="" unicode="&#x4e16;" d="M50 131 q-3 0 -8 -1 q-14 0 -19 -2 l-8 8 l48 1 l1 22 q0 30 -2 46 q0 1 2 1 l27 -11 q2 0 0 -2 l-5 -7 l0 -49 l30 1 l1 72 l24 -8 q3 -1 1 -3 l-6 -7 l0 -54 l30 0 l1 73 l27 -9 q2 -1 0 -3 l-5 -6 l0 -54 l19 0 l15 16 l18 -19 q2 -2 0 -2 l-52 -1 l0 -49 l1 -26 q-4 -19 -21 -29 q-3 0 -4 4 l1 23 l-30 0 q-1 -17 -15 -31 q-5 -3 -6 0 l1 77 l0 30 l-30 0 l0 -134 l116 1 l15 15 l18 -17 q2 -2 -1 -3 l-148 -1 q-6 -14 -20 -23 q-3 -1 -5 2 l2 55 l0 104 l-13 0 ZM166 61 l0 12 l0 60 l-30 -1 l0 -71 l30 0 Z" /><glyph glyph-name="" unicode="&#x4e1a;" d="M42 -14 q-17 -1 -29 -3 l-8 8 l87 1 l1 176 l-1 45 l26 -8 q3 -1 1 -4 q-3 -3 -5 -10 l-1 -198 l28 0 l1 174 l-1 45 l29 -8 q3 0 0 -4 q-3 -1 -5 -10 l-1 -136 q27 62 38 113 l29 -17 q2 -2 0 -3 l-7 -5 q-31 -59 -60 -100 l-1 -49 l52 1 l15 16 l22 -18 q1 -2 -1 -3 l-209 -3 ZM33 158 q47 -56 51 -86 q-3 -15 -21 -21 q-9 -2 -8 6 q-2 56 -24 100 q0 2 2 1 Z" /><glyph glyph-name="" unicode="&#x4e1d;" d="M231 137 q2 -2 0 -2 l-6 -5 q-17 -20 -67 -74 q-8 -8 -11 -12 l82 2 q1 -2 -1 -2 q-80 -21 -90 -27 q0 0 -1 0 q-3 -2 -4 1 l-8 24 q8 0 17 9 q14 17 38 58 q-32 -11 -44 -16 q-2 -1 -3 -1 q-1 0 -1 2 l-6 20 q7 -1 15 10 q22 34 39 82 l25 -17 q3 -1 -1 -6 q-28 -31 -61 -67 l43 2 q11 20 19 37 l26 -18 ZM136 143 q2 -1 0 -3 l-6 -5 q-21 -25 -77 -89 l68 5 q4 1 1 -2 q-63 -23 -76 -30 q-5 -3 -6 1 l-6 25 q11 1 17 10 q9 11 36 57 q-12 -4 -31 -10 q-11 -4 -15 -5 q-2 -2 -3 -2 q-1 0 -1 2 l-5 20 q6 0 15 10 q22 34 39 82 l25 -17 q3 -1 -1 -5 q-42 -48 -61 -67 l42 1 q6 10 16 31 q3 5 4 7 l25 -16 ZM41 -15 q-17 -1 -29 -3 l-8 8 l210 3 l15 16 l22 -18 q1 -2 -1 -3 l-209 -3 Z" /><glyph glyph-name="" unicode="&#x4e2a;" d="M121 216 l26 -12 q2 -1 2 -2 q0 0 -2 -2 l-5 -5 q20 -42 112 -84 q2 -4 0 -4 q-14 1 -34 -20 q-56 40 -80 105 q-47 -73 -134 -125 q-2 -1 -3 0 q0 2 1 3 q76 51 117 146 ZM148 124 q1 0 1 -2 l-2 -11 l-1 -74 l1 -36 q0 -19 -21 -34 q-5 -2 -6 5 l1 47 l1 75 q0 25 -2 42 q-1 3 2 2 l26 -14 Z" /><glyph glyph-name="" unicode="&#x4e2d;" d="M52 67 q-11 -21 -23 -15 l-1 105 q0 2 1 3 q1 0 2 -1 l19 -11 l62 2 l0 21 l-1 44 l30 -8 q3 0 1 -3 q-3 -3 -5 -10 l0 -44 l58 1 l12 15 l24 -14 q2 -1 0 -3 l-6 -9 l1 -58 l2 -6 q2 -4 -3 -4 q-25 3 -88 1 l0 -46 l0 -30 q-5 -19 -22 -30 q-3 -1 -5 4 l2 51 l0 51 q-15 0 -40 -1 q-15 0 -20 0 l0 -5 ZM51 142 l0 -63 l61 1 l0 63 l-61 -1 ZM196 145 l-59 -1 l0 -63 l60 1 l-1 63 Z" /><glyph glyph-name="" unicode="&#x4e3b;" d="M65 147 q-18 -1 -27 -4 l-8 9 l160 3 l15 15 l19 -16 q3 -3 -1 -4 l-97 -2 l17 -7 q3 0 1 -4 l-2 -8 l-1 -52 l37 1 l15 14 l19 -17 q2 -1 -1 -3 l-70 -1 l-1 -81 l66 1 l15 16 l20 -18 q2 -2 0 -3 l-187 -3 q-14 -1 -27 -3 l-7 8 l96 2 l1 80 l-30 -1 q-16 0 -27 -3 l-9 8 l66 2 l0 28 l-1 44 l-51 -1 ZM112 210 q36 -16 37 -30 q-2 -13 -16 -18 q-10 -3 -11 5 q0 24 -12 40 q-1 1 -1 3 q1 1 3 0 Z" /><glyph glyph-name="" unicode="&#x4e49;" d="M61 192 q11 -80 62 -122 q34 54 47 139 l31 -11 q3 -2 1 -5 l-6 -7 q-19 -81 -57 -129 q38 -29 107 -62 q2 -2 1 -4 q0 -1 -3 -1 q-15 1 -35 -20 q-54 31 -89 67 q-38 -39 -113 -72 q-3 0 -1 4 q66 33 103 81 q-42 51 -52 142 l4 0 ZM99 210 q35 -14 32 -25 q0 -13 -15 -20 q-8 -2 -9 7 q-2 25 -10 36 q-2 4 2 2 Z" /><glyph glyph-name="" unicode="&#x4e50;" d="M187 206 l19 -20 q2 -2 1 -2 q0 -1 -2 -1 q-13 -3 -118 -11 l-2 -2 l-16 -74 l59 1 l0 31 l-1 28 q-1 2 0 3 q0 0 2 0 l26 -11 q2 0 1 -3 l-3 -7 l0 -40 l46 1 l16 16 l18 -17 q1 -2 1 -2 q-1 -1 -2 -1 l-79 -2 l-1 -42 l1 -41 q1 -25 -34 -42 q-2 -1 -3 2 q0 15 -10 21 q-2 1 0 3 q24 -2 21 8 l1 90 l-84 -2 q-3 3 0 4 q8 1 9 12 l7 55 l2 30 q0 3 2 1 l25 -14 q69 14 98 28 ZM87 80 l23 -14 q4 -1 0 -5 q-35 -41 -92 -85 q-2 -1 -3 0 q-1 2 0 3 q43 35 72 101 ZM167 70 q54 -26 60 -36 q2 -13 -9 -24 q-8 -9 -14 5 q-15 34 -38 52 q-1 2 1 3 Z" /><glyph glyph-name="" unicode="&#x4e5f;" d="M131 202 l-3 -5 l0 -62 l35 16 l9 19 l23 -13 q2 -1 0 -3 l-8 -12 l0 -72 q6 -38 -29 -54 q-3 -1 -4 2 q-1 13 -8 17 q-1 2 0 3 q19 -3 18 22 l0 85 l-36 -16 l-1 -75 q1 -28 -13 -42 q-4 -4 -6 -4 q-2 0 -2 5 l0 106 l-35 -16 l-3 -87 q0 -13 11 -14 q66 -10 128 3 q15 3 25 32 q1 2 3 2 q2 -1 1 -3 q-2 -21 4 -28 q15 -19 -7 -26 q-22 -7 -65 -8 q-45 -1 -87 5 q-32 4 -30 49 l1 66 l-7 -3 q-15 -6 -27 -15 l-11 6 l45 20 l0 31 q0 11 -1 27 q0 7 0 9 q-1 4 2 2 l22 -12 q2 0 0 -3 l-3 -8 l-1 -38 l35 16 l0 48 q0 31 -1 40 q0 2 1 1 l24 -10 q1 0 2 -1 q0 0 -1 -2 Z" /><glyph glyph-name="" unicode="&#x4e86;" d="M115 146 l16 -6 l46 46 l-107 -4 q-21 -2 -31 -5 l-10 9 l151 6 l14 13 l26 -24 q2 -2 1 -4 q-1 -1 -4 -1 q-23 -2 -82 -38 l10 -3 q2 -2 0 -3 q-3 -6 -4 -9 l1 -70 l0 -36 q1 -30 -36 -48 q-4 -2 -5 3 q1 16 -12 26 q-2 1 -1 3 q0 1 2 1 q27 -5 26 8 l-1 85 q-1 34 -1 49 q-1 3 1 2 Z" /><glyph glyph-name="" unicode="&#x4e92;" d="M177 145 l23 -13 q2 -1 0 -2 l-8 -9 l-17 -133 l29 0 l18 18 l20 -20 q2 -2 0 -3 l-189 -3 q-14 -1 -27 -3 l-7 8 l130 2 l7 54 l-95 -1 q-3 0 -4 2 q0 2 3 3 q5 2 6 9 l16 97 l4 30 l-23 0 q-11 0 -23 -2 q-3 -1 -5 -1 l-9 9 l163 1 l16 16 l20 -17 q1 -2 1 -2 q-1 -1 -2 -1 l-133 -2 l19 -10 q2 -2 1 -3 q-1 -1 -1 -1 l-3 -5 l-6 -33 l65 1 l11 14 ZM88 46 l69 1 l9 78 l-66 -1 l-12 -78 Z" /><glyph glyph-name="" unicode="&#x4e94;" d="M178 120 l22 -13 q0 0 1 -1 q1 0 0 -1 l-7 -10 l-7 -99 l23 1 l16 15 l20 -17 q1 -2 -1 -3 l-201 -4 q-14 0 -27 -2 l-8 8 l73 1 l14 104 l-17 0 q-23 0 -34 -3 l-8 8 l60 1 l6 38 l4 37 l-42 -1 q-14 0 -27 -2 l-9 8 l162 1 l14 14 l19 -16 q1 -1 1 -2 q0 -1 -2 -1 l-109 -1 l20 -9 q2 -1 0 -4 l-5 -5 l-9 -57 l48 1 l10 14 ZM169 100 l-50 -1 l-17 -104 l61 1 l6 104 Z" /><glyph glyph-name="" unicode="&#x4eab;" d="M172 166 l22 -13 q2 0 0 -2 l-7 -9 l1 -24 l1 -3 q0 -1 -1 -1 q-57 0 -100 -1 q-1 -6 -13 -13 q-6 -2 -6 1 l0 25 l0 11 q1 13 -1 25 q0 1 1 2 q0 0 2 -1 l17 -8 l76 1 l8 10 ZM51 36 q-15 -1 -26 -4 l-9 9 l104 3 q0 14 -1 26 q0 0 1 1 q0 1 1 0 q2 -1 7 -3 q4 -1 6 -2 l16 21 l-65 -1 q-11 0 -17 -2 l-8 7 l93 2 l11 10 l19 -16 q3 -5 -3 -6 q-16 -1 -40 -16 q2 0 3 0 q2 0 1 -3 q1 -7 1 -18 l65 2 l14 16 l19 -17 q1 -3 -2 -4 l-96 -3 q0 -26 -1 -36 q-4 -24 -31 -35 q-3 -1 -2 2 q-2 14 -11 18 q-2 1 0 3 q22 -2 20 12 q1 10 1 36 l-70 -2 ZM88 150 l0 -31 l76 1 l0 30 l-76 0 ZM64 173 q-18 0 -26 -3 l-9 8 l87 1 l-1 34 q0 3 2 2 l27 -8 q2 -1 0 -3 q-3 -6 -3 -12 l0 -13 l54 1 l14 14 l18 -16 q1 -1 -1 -3 l-162 -2 Z" /><glyph glyph-name="" unicode="&#x4eba;" d="M105 206 q0 3 0 3 q1 1 3 0 l30 -16 q3 -2 0 -4 l-3 -3 q-4 -119 117 -182 q3 -2 -1 -4 q-14 2 -36 -15 q-48 36 -66 79 q-17 35 -20 119 l-2 -1 q-2 -139 -121 -211 q-2 -1 -3 0 q0 2 1 3 q60 48 79 94 q21 47 22 138 Z" /><glyph glyph-name="" unicode="&#x4ece;" d="M146 209 q0 2 2 1 l26 -13 q3 -1 1 -4 l-5 -5 l0 -57 q9 -74 81 -139 q2 -1 1 -3 q0 -1 -2 -1 q-15 3 -35 -14 q-35 49 -46 138 q1 -97 -115 -147 q-2 0 -2 1 q0 2 2 3 q96 43 94 157 l-1 47 q0 27 -1 36 ZM71 208 q0 3 2 2 l24 -12 q3 -2 0 -5 l-4 -6 l-1 -55 q0 -33 -3 -48 q35 -16 39 -28 q-1 -12 -14 -22 q-6 -3 -7 3 q-6 23 -19 41 q-10 -64 -84 -108 q-2 -1 -2 1 q0 1 2 2 q38 26 52 62 q15 34 15 100 l1 37 q0 28 -1 36 Z" /><glyph glyph-name="" unicode="&#x4ee5;" d="M179 199 l35 -14 q4 -1 0 -5 l-8 -10 l0 -72 q-1 -37 -19 -61 q32 -9 40 -24 q2 -23 -17 -28 q-8 0 -10 9 q-7 24 -18 37 q-25 -30 -121 -59 q-2 0 -2 2 q0 1 2 2 q127 38 120 127 l0 58 q0 6 -1 19 q0 15 -1 19 ZM132 130 q2 1 3 0 q0 -1 -1 -3 l-57 -86 q-11 -16 -40 -65 q-2 -3 -5 0 q-1 2 -4 9 q-4 11 -5 15 q0 5 2 7 q10 10 20 20 l-2 132 q0 7 -1 19 q0 14 -1 19 l28 -11 q2 -1 0 -4 l-5 -7 l-4 -133 q2 4 8 10 q3 3 4 5 l60 73 ZM114 200 q32 -13 31 -28 q-2 -11 -14 -17 q-10 -3 -10 6 q-1 24 -10 37 q-1 1 0 2 q1 1 3 0 Z" /><glyph glyph-name="" unicode="&#x4f20;" d="M143 160 q-13 0 -28 -2 q1 0 -1 0 l-7 7 l42 1 l4 18 l5 30 l25 -10 q3 -1 0 -4 q-6 -4 -7 -15 l-4 -19 l29 0 l14 14 l16 -15 q1 -3 -2 -3 l-59 -1 l-7 -36 l55 2 l14 15 l18 -16 q2 -3 0 -3 l-89 -3 l-3 -14 l-4 -16 l44 1 l10 11 l21 -16 q2 -2 0 -4 l-9 -7 q-18 -24 -52 -52 q21 -12 31 -21 q5 -11 -5 -28 q-4 -5 -6 -4 q-2 1 -6 7 q-26 38 -59 63 q-1 2 2 3 q20 -8 38 -17 q22 33 35 61 l-46 -2 q-11 -11 -19 -13 q-5 -1 -5 2 l10 40 l2 5 l-14 0 q-3 0 -9 -1 q-14 0 -18 -2 l-8 8 l50 1 l7 35 l-5 0 ZM5 75 q-2 -1 -3 0 q-1 1 0 3 q60 51 92 136 l20 -13 q3 -1 0 -5 q-14 -25 -34 -51 l-1 -143 q-2 -15 -14 -29 q-7 -5 -8 0 l2 69 l2 82 q-22 -22 -56 -49 Z" /><glyph glyph-name="" unicode="&#x4f3c;" d="M181 199 l27 -12 q4 -1 1 -4 l-5 -8 l0 -75 q-1 -44 -12 -66 q35 -11 42 -24 q2 -20 -16 -25 q-6 -1 -10 8 q-6 23 -19 36 q-17 -31 -89 -55 q-2 -1 -2 1 q-1 1 1 2 q56 23 68 45 q15 19 15 81 l0 57 q0 31 -1 39 ZM7 72 q-2 -1 -3 0 q-1 1 0 2 q47 60 69 136 l19 -9 q2 -1 0 -3 l-3 -4 q-8 -20 -19 -38 l-2 -152 q0 -14 -11 -29 q-6 -5 -7 0 l2 69 l2 86 q-20 -29 -47 -58 ZM168 111 q4 1 2 -2 l-37 -57 q-10 -13 -35 -56 q-2 -3 -5 0 q-6 15 -8 22 q0 1 1 4 q0 2 0 2 q9 7 17 16 l-2 108 q0 24 -2 35 l27 -10 q2 -2 0 -4 l-4 -6 l-3 -107 q1 1 4 5 q4 4 6 6 l39 44 ZM135 204 q31 -13 29 -28 q-1 -11 -13 -15 q-7 -3 -8 4 q0 -1 0 1 q0 22 -10 35 q-1 1 0 3 q0 1 2 0 Z" /><glyph glyph-name="" unicode="&#x4f53;" d="M151 215 l25 -11 q1 0 1 -2 l-5 -8 l-1 -39 l35 1 l13 12 l16 -14 q2 -3 -1 -3 l-54 -1 q13 -69 73 -122 q1 -1 1 -2 q0 -1 -2 -1 q-16 0 -31 -11 q-36 42 -45 136 l-5 0 l-2 -108 l5 0 l10 11 l15 -13 q1 -2 -1 -2 l-29 -1 l1 -42 q-2 -13 -16 -27 q-6 -5 -7 1 l2 68 l-8 -1 q-1 0 -6 0 q-9 -1 -12 -1 l-6 6 l32 1 l0 1 l0 61 q-25 -42 -69 -92 q-5 -3 -2 2 q35 51 66 136 l-12 0 q-10 0 -23 -2 q-4 -1 -6 -1 l-8 7 l55 1 l0 25 q0 23 -1 34 q0 2 2 1 ZM7 78 q-2 -1 -3 0 q0 2 1 3 q52 52 84 133 l22 -14 q2 -1 2 -1 q0 -1 -2 -2 l-3 -4 q-11 -18 -33 -45 l2 -148 q-2 -15 -15 -30 q-3 -2 -5 -2 q-1 0 -1 3 l1 69 l1 87 q-27 -29 -51 -49 Z" /><glyph glyph-name="" unicode="&#x4f60;" d="M5 72 q-2 -1 -3 0 q0 2 1 3 q71 59 100 135 l20 -13 q3 -1 0 -5 q-23 -37 -41 -55 l-1 -136 q-2 -15 -14 -29 q-6 -5 -7 0 l2 69 l1 78 q-24 -22 -58 -47 ZM182 13 q1 -26 -29 -42 q-2 -1 -3 1 q0 15 -9 19 q-2 0 0 3 q20 -1 17 7 l1 110 l-2 27 q0 5 2 3 l25 -7 q3 -1 1 -4 l-2 -7 l-1 -77 l0 -33 ZM211 168 l10 11 l26 -22 q3 -3 -1 -5 q-17 0 -40 -14 q-3 -1 -2 2 l7 23 l-67 -1 q-18 -26 -49 -55 q-1 -1 -2 0 q-2 1 -1 2 q38 45 53 101 l23 -11 q2 -1 0 -3 l-3 -4 q-2 -3 -6 -9 q-7 -11 -11 -16 l63 1 ZM126 102 l22 -9 q2 -1 2 -2 q1 0 -1 -2 q-24 -46 -57 -83 q-2 -1 -3 -1 q-1 1 0 3 q26 40 37 94 ZM193 93 q43 -28 49 -44 q1 -11 -11 -20 q-4 -4 -7 -3 q-3 2 -4 8 q-7 28 -29 57 q-1 3 2 2 Z" /><glyph glyph-name="" unicode="&#x4f73;" d="M5 73 q-2 -1 -3 0 q-1 1 0 3 q68 54 99 135 l21 -13 q2 -1 -1 -5 q-19 -32 -41 -57 l0 -136 q-2 -15 -15 -29 q-3 -3 -4 -3 q-2 0 -2 3 l1 69 l1 78 q-16 -16 -56 -45 ZM110 45 q-3 0 -3 3 q-1 2 2 2 l43 1 l0 1 l-1 45 l30 -8 q1 0 2 -1 q-1 -1 -2 -2 q-3 -3 -5 -10 l0 -24 l29 1 l11 13 l16 -14 q1 -2 1 -2 q-1 -1 -2 -1 l-55 -2 l0 -59 l41 1 l14 16 l18 -18 q2 -2 -1 -3 l-130 -3 q-17 -1 -29 -3 l-7 7 l70 2 l0 60 l-42 -2 ZM113 156 q-2 -1 -3 2 q0 3 2 3 l41 1 l0 5 l-1 44 l29 -7 q3 0 0 -4 q-3 -1 -5 -10 l0 -27 l23 1 l12 13 l17 -15 q2 -3 -1 -3 l-51 -1 l0 -50 l37 1 l13 13 l16 -14 q1 -2 1 -2 q-1 -1 -2 -1 l-141 -3 q-3 0 -4 2 q0 2 3 3 l53 1 l1 49 l-40 -1 Z" /><glyph glyph-name="" unicode="&#x4f7f;" d="M153 212 q0 3 2 2 l23 -12 q3 -1 0 -4 l-4 -7 l0 -18 l40 1 l13 13 l16 -14 q2 -3 -1 -3 l-68 -2 l0 -28 l29 0 l9 11 l22 -14 q2 0 0 -2 l-6 -9 l1 -35 l1 -3 q1 0 0 -1 q-14 0 -60 0 q-4 -28 -17 -51 q33 -22 95 -34 q2 0 2 -2 q0 -1 -2 -2 q-19 -3 -34 -24 q-43 17 -69 51 q-25 -35 -84 -58 q-3 0 -1 4 q57 25 76 66 q-7 14 -13 27 l3 1 q6 -10 15 -19 q7 18 10 40 q-14 0 -28 -1 q-1 -9 -12 -17 q-2 -2 -4 -1 q-1 0 -1 2 l0 53 q0 21 -1 25 q0 1 1 2 q0 0 2 -1 l16 -10 l31 1 l0 28 l-18 0 q-15 0 -30 -2 l-8 7 l56 1 l0 3 q0 19 -2 36 ZM6 78 q-1 -1 -2 1 q-1 1 0 2 q53 51 85 133 l22 -14 q2 -1 0 -4 l-4 -4 q-1 -2 -4 -6 q-9 -13 -22 -30 l3 -140 q-2 -15 -13 -30 q-3 -2 -4 -2 q-1 0 -1 3 l1 69 l0 82 q-29 -34 -61 -60 ZM174 127 q0 -18 -2 -35 l32 1 l-1 42 l-29 -1 l0 -7 ZM152 92 q1 8 2 26 q1 9 1 13 l0 3 l-31 -1 l0 -42 l28 1 Z" /><glyph glyph-name="" unicode="&#x4fbf;" d="M137 187 q-3 0 -10 -1 q-14 0 -18 -2 l-8 7 l107 4 l12 11 l17 -13 q1 -2 1 -2 q-1 -1 -2 -1 l-78 -3 l13 -8 l-1 -21 l28 1 l8 11 l24 -12 q0 0 1 -1 q1 0 0 -2 l-6 -9 l0 -47 q0 -13 -14 -27 q-5 -5 -9 0 q-4 10 -8 16 l-26 -1 q-3 -35 -18 -59 q31 -18 101 -36 q2 -1 1 -2 q0 -2 -2 -2 q-16 -1 -36 -20 q-47 18 -74 48 q-25 -30 -100 -51 q-2 0 -3 2 q0 1 2 2 q69 21 93 57 q-13 17 -21 41 l3 1 q6 -18 23 -32 q12 21 14 51 l-28 -1 q-4 -10 -12 -15 q-2 -1 -4 -1 q-1 1 -1 3 l0 68 q0 16 -1 21 q0 2 3 1 l14 -7 l31 1 q0 20 -2 30 l-14 0 ZM4 67 q-1 -1 -2 0 q-1 2 0 3 q48 51 82 145 l22 -13 q2 -1 0 -3 q1 0 0 -1 l-4 -4 q-14 -26 -29 -47 l2 -133 q0 -12 -14 -28 q-2 -2 -4 -2 q-1 0 -1 3 l1 69 l1 70 q-25 -32 -54 -59 ZM169 105 q0 -7 0 -13 l29 1 l1 61 l-29 -1 l0 -26 l18 1 q3 0 3 -2 q0 -3 -3 -3 l-18 -1 l-1 -17 ZM122 121 l1 -30 l29 1 q0 9 1 20 l0 10 l-31 -1 ZM153 146 q0 3 0 6 l-31 -1 l0 -25 l31 0 l0 20 Z" /><glyph glyph-name="" unicode="&#x5019;" d="M145 139 l16 -12 q2 -1 0 -3 q-4 -4 -9 -12 l41 1 l11 13 l15 -14 q2 -2 0 -3 l-37 -1 q0 -23 -3 -41 l36 1 l13 13 l15 -14 q2 -3 -1 -4 l-58 -1 q7 -55 65 -70 q2 -1 2 -2 q0 -2 -2 -2 q-13 0 -29 -18 q-39 19 -39 92 l-3 0 q-5 -60 -96 -98 q-2 -1 -3 1 q0 1 2 2 q72 38 77 94 l-17 0 q-15 -1 -27 -3 l-7 7 l52 2 q2 17 2 41 l-13 -1 q-4 -4 -11 -12 q-15 -17 -22 -24 q-2 -2 -1 1 q23 41 29 66 q0 2 2 1 ZM7 67 q-4 -1 -2 2 q42 59 72 146 l19 -10 q2 -1 0 -4 l-3 -3 q-10 -24 -24 -47 l-2 -152 q-1 -16 -12 -30 q-6 -5 -7 1 l2 70 l2 84 q-21 -31 -45 -57 ZM182 188 l-49 -1 q-2 0 -2 2 q0 2 2 3 l48 1 l9 10 l18 -11 q2 -1 2 -1 q0 -1 -2 -2 l-5 -7 l-4 -33 l13 0 l12 13 l15 -15 q1 -1 -1 -3 l-93 -1 q-16 0 -26 -2 l-7 7 l65 0 l5 40 ZM89 162 l13 -8 q2 0 2 -6 l-1 -90 q0 -16 -11 -27 q-4 -4 -6 1 l1 127 q0 3 2 3 Z" /><glyph glyph-name="" unicode="&#x503c;" d="M130 166 q-19 0 -28 -3 l-7 7 l51 2 l0 5 l1 34 l29 -6 q2 -1 0 -5 l-6 -5 l-1 -23 l39 1 l13 13 l18 -15 q1 -1 -2 -3 l-69 -1 l-2 -30 l20 1 l8 10 l21 -10 q2 0 0 -3 l-5 -6 l-1 -136 l12 1 l14 14 l19 -16 q2 -2 0 -3 l-139 -2 q-17 -1 -27 -3 l-7 7 l33 1 l-1 118 l-1 32 q0 2 2 1 l18 -7 l12 0 l2 30 l-16 0 ZM178 32 q2 -1 2 -3 q0 -2 -3 -2 l-45 -2 l0 -33 l54 1 l1 139 l-56 -1 l0 -30 l45 1 q3 0 3 -2 q0 -3 -2 -3 l-46 -1 l1 -30 l44 1 q3 0 3 -2 q0 -2 -2 -2 l-45 -2 l0 -31 l46 2 ZM4 67 q-1 -1 -2 0 q-1 2 0 3 q51 61 81 145 l22 -13 q2 -1 -1 -4 l-3 -4 q-12 -22 -25 -41 l3 -154 q-2 -15 -16 -28 q-2 -2 -4 -2 q-1 0 -1 3 l1 68 l1 90 q-25 -32 -56 -63 Z" /><glyph glyph-name="" unicode="&#x505a;" d="M133 91 l7 10 l15 -11 q1 0 1 -2 l-4 -7 l1 -48 l2 -6 q1 -3 -2 -3 q-18 3 -52 3 l1 -10 q-8 -20 -14 -14 l-1 93 q0 4 2 2 l11 -9 l10 1 l2 57 q-19 -1 -28 -3 l-7 6 l35 2 l1 26 q0 26 0 36 l21 -6 q1 0 1 -2 l-3 -4 l-2 -49 l13 1 l10 10 l12 -12 q2 -2 0 -2 l-35 -2 l-3 -57 l6 0 ZM171 108 q7 -36 15 -51 q12 31 17 77 l-28 -2 q-9 -15 -18 -33 q-1 -1 -2 -1 q-1 0 -1 2 q24 68 31 109 q0 2 2 1 l22 -14 q2 -1 0 -2 q-6 -4 -10 -13 q-4 -10 -13 -27 q-5 -11 -8 -17 l40 4 l10 12 l15 -13 q2 -2 -1 -2 l-35 -3 l15 -8 q2 -1 -1 -6 q-8 -48 -27 -80 q16 -26 53 -45 q1 -1 1 -2 q0 -1 -2 -1 q-12 1 -29 -15 q-24 24 -33 48 q-19 -28 -55 -55 q-4 -2 -2 2 q34 32 52 68 q-5 17 -10 57 q-1 5 -1 8 l3 2 ZM6 66 q-4 -1 -2 2 q44 62 69 136 l19 -9 q2 -1 -1 -3 l-3 -4 q-7 -17 -18 -35 l-2 -149 q0 -14 -11 -29 q-6 -5 -7 0 l2 69 l2 83 q-22 -31 -48 -61 ZM101 84 l1 -52 l33 2 l-1 52 l-33 -2 Z" /><glyph glyph-name="" unicode="&#x5065;" d="M113 194 l18 -12 q2 -2 0 -2 l-8 -9 l-19 -52 l12 1 l8 10 l18 -11 q2 0 1 -3 l-7 -10 q-6 -40 -23 -70 q25 -26 131 -34 q2 0 2 -1 q1 -2 -1 -3 q-17 -3 -31 -25 q-80 12 -108 52 q-21 -30 -49 -53 q-2 0 -2 1 q-1 0 0 2 q29 28 42 63 q-10 20 -15 48 l4 1 q5 -23 15 -38 q8 22 15 65 l-14 -1 q-6 -8 -17 -11 q-4 -1 -3 4 l23 73 l-23 -1 q-3 2 0 6 l23 0 l8 10 ZM169 209 l21 -7 q1 0 1 -3 l-3 -6 l0 -13 l17 0 l7 10 l17 -10 q2 0 0 -3 l-5 -7 l0 -19 l4 1 l9 10 l13 -12 q1 -2 1 -2 q-1 -1 -2 -1 l-25 -1 l0 -26 l3 -4 q1 -2 -2 -3 q-12 1 -27 1 l-11 0 l0 -21 l20 1 l9 10 l13 -12 q2 -2 -1 -2 l-41 -2 l0 -10 l0 -14 l28 1 l11 11 l13 -13 q2 -2 -1 -2 l-50 -2 l0 -18 q-3 -13 -14 -25 q-3 -2 -5 -1 q-2 0 -1 3 l0 41 l-32 -1 q-4 2 -1 5 l33 1 l1 15 l0 9 l-25 -1 q-4 2 -1 5 l26 1 l0 20 l-20 0 q-3 0 -3 3 q0 2 3 3 l20 0 l0 26 l-33 -1 q-4 3 0 6 l33 0 l0 15 l0 9 l-22 0 q-3 0 -4 2 q0 3 3 3 l23 1 l0 29 ZM4 74 q-3 -1 -2 2 q38 50 68 138 l20 -10 q2 0 -1 -3 l-2 -4 q-9 -18 -20 -37 l-1 -144 q-2 -15 -12 -29 q-6 -5 -7 0 l2 69 l1 77 q-21 -32 -46 -59 ZM187 119 l18 1 l0 25 l-18 0 l0 -26 ZM205 175 l-17 0 l-1 -24 l18 0 l0 24 Z" /><glyph glyph-name="" unicode="&#x5143;" d="M165 111 q2 -1 0 -2 l-4 -7 l-10 -78 q-4 -20 17 -20 q26 0 46 3 q14 1 21 25 q1 2 3 2 q1 0 1 -2 q-2 -21 3 -23 q15 -14 -4 -24 q-30 -11 -71 -6 q-37 4 -33 49 l4 76 l1 16 l-35 -1 l10 -4 q3 -1 1 -3 l-2 -7 q3 -98 -108 -140 q-2 -1 -3 1 q-1 2 1 3 q55 27 72 57 q18 28 17 93 l-36 -1 q-17 -1 -26 -3 l-9 8 l181 4 l15 15 l19 -17 q2 -1 -1 -3 l-89 -2 l19 -9 ZM87 189 q-20 -2 -27 -3 l-8 8 l112 3 l14 14 l19 -16 q1 -2 -2 -3 l-108 -3 Z" /><glyph glyph-name="" unicode="&#x5168;" d="M98 98 q-14 0 -27 -2 l-8 8 l100 3 l14 14 l18 -17 q3 -2 -1 -2 l-67 -3 l16 -4 q3 -1 1 -4 q-3 -1 -5 -10 l-1 -34 l29 0 l15 14 l19 -16 q2 -1 -1 -3 l-62 -1 l-1 -54 l67 1 l15 16 l20 -18 q2 -2 0 -3 l-185 -3 q-14 -1 -27 -3 l-8 8 l97 2 l0 53 l-24 0 q-14 -1 -27 -3 l-9 8 l60 1 l0 12 l-1 41 l-17 -1 ZM121 216 l25 -11 q3 -1 0 -4 l-3 -3 q34 -55 111 -87 q2 -4 0 -4 q-14 -1 -29 -18 q-60 44 -86 106 l0 -1 q-45 -70 -133 -127 q-2 -1 -3 0 q0 2 1 3 q77 60 117 146 Z" /><glyph glyph-name="" unicode="&#x5171;" d="M152 212 l26 -12 q1 -1 1 -3 l-4 -8 l-1 -39 l23 0 l14 15 l19 -18 q2 -2 0 -2 l-56 -1 l0 -74 l42 0 l15 15 l19 -17 q2 -1 -1 -3 l-209 -2 q-15 -1 -28 -3 l-7 8 l76 1 l-1 73 l-19 0 q-18 0 -28 -2 l-7 7 l54 1 l0 24 q0 9 -1 23 q0 8 0 11 q0 1 2 1 l26 -11 q2 0 0 -2 l-4 -7 l-1 -39 l48 1 l1 31 q0 6 -1 20 q0 9 0 11 q0 1 2 1 ZM102 143 l0 -74 l48 0 l0 75 l-48 -1 ZM100 58 l16 -22 q4 -3 -2 -6 q-40 -36 -105 -65 q-2 -1 -3 1 q0 1 1 3 q62 34 90 88 q0 2 1 2 q0 1 2 -1 ZM142 43 q54 -14 75 -27 q7 -15 -1 -30 q-7 -11 -16 1 q-26 37 -59 53 q-2 1 1 3 Z" /><glyph glyph-name="" unicode="&#x517b;" d="M164 216 l24 -9 q2 -1 -1 -3 l-4 -4 q-12 -12 -31 -27 l46 2 l15 13 l16 -16 q2 -2 0 -2 l-91 -3 q-3 -14 -7 -26 l50 2 l12 11 l16 -14 q2 -3 -1 -3 l-79 -2 q-5 -15 -14 -27 l89 2 l15 14 l17 -16 q2 -2 0 -2 l-82 -2 q5 -28 98 -43 q3 -1 0 -4 q-16 -1 -31 -20 q-56 20 -70 67 l-40 -1 q-9 -13 -22 -24 l24 -7 q2 -1 0 -3 l-3 -7 q4 -68 -94 -99 q-2 -1 -3 0 q0 1 1 3 q45 20 59 42 q15 21 13 68 q-29 -22 -77 -44 q-2 -1 -3 0 q-1 2 1 3 q63 32 83 67 l-35 -1 q-15 0 -27 -2 l-8 7 l73 2 q8 12 12 27 l-21 -1 q-13 0 -26 -2 l-9 7 l58 2 q5 11 6 26 l-48 -1 q-23 -2 -28 -4 l-8 8 l117 3 q9 18 16 41 q0 3 2 2 ZM143 75 l30 -10 q2 -1 0 -3 l-6 -7 l0 -62 q-2 -13 -17 -24 q-7 -4 -7 1 l1 77 l-1 28 ZM79 213 q30 -15 29 -24 q-4 -10 -13 -13 q-9 -1 -9 5 q-1 18 -9 30 q-2 3 2 2 Z" /><glyph glyph-name="" unicode="&#x5185;" d="M116 214 l27 -8 q3 0 1 -4 l-3 -8 q0 -18 -2 -34 l54 1 l12 13 l22 -15 q2 -1 0 -3 l-8 -11 l-1 -85 l1 -33 q0 -37 -39 -56 q-3 -2 -4 1 q1 18 -10 23 q-2 1 -1 3 q0 1 2 1 q28 -2 25 22 l2 134 l-55 -1 q-3 -25 -10 -44 q53 -24 56 -35 q2 -13 -11 -26 q-7 -5 -10 5 q-10 27 -37 51 q-14 -39 -67 -78 l0 -26 q-1 -15 -15 -30 q-3 -3 -5 -3 q-2 1 -2 4 l1 157 q1 21 -1 43 q0 3 1 1 l23 -14 l54 0 q0 25 0 55 ZM61 153 l-1 -120 q51 45 55 120 l-54 0 Z" /><glyph glyph-name="" unicode="&#x51ac;" d="M95 215 l23 -15 q2 -1 -1 -4 l-6 -5 q-3 -4 -7 -9 l56 3 l15 13 l24 -18 q2 -3 0 -4 l-12 -7 q-25 -24 -50 -43 q33 -20 112 -41 q3 -1 0 -4 q-15 0 -32 -22 q-62 21 -93 57 q-41 -30 -101 -60 q-2 -1 -3 0 q-1 1 1 3 q53 34 92 70 q-10 13 -21 39 q-34 -36 -53 -49 q-1 -1 -3 -1 q-1 1 0 3 q39 45 56 93 q1 3 3 1 ZM97 37 q58 -21 61 -35 q2 -14 -12 -26 q-10 -3 -13 6 q-17 31 -38 53 q-3 3 2 2 ZM157 179 l-57 -3 q-1 -1 -3 -3 q-1 -1 -2 -2 q10 -19 26 -34 q21 21 36 42 ZM102 88 q41 -13 45 -25 q2 -11 -9 -20 q-7 -3 -11 4 q-9 22 -27 38 q-1 1 0 3 q0 1 2 0 Z" /><glyph glyph-name="" unicode="&#x51b7;" d="M69 94 q-2 -1 -3 0 q-1 1 1 3 q46 38 68 117 l26 -10 q2 -1 0 -3 l-4 -2 q11 -45 89 -92 q2 -1 2 -3 q0 -2 -2 -1 q-16 1 -32 -12 q-47 36 -59 105 q-31 -62 -86 -102 ZM104 39 q5 -2 16 -6 q10 -4 15 -6 q18 23 35 54 l-50 -1 q-15 -1 -25 -3 l-6 6 l82 3 l11 12 l22 -16 q1 -1 1 -1 q0 -1 -2 -2 l-9 -7 q-29 -29 -54 -47 q27 -13 34 -22 q3 -12 -9 -25 q-8 -8 -13 3 q-15 33 -50 56 q0 2 2 2 ZM83 160 l-34 -114 q-4 -18 0 -34 q6 -9 0 -16 q-8 -8 -22 -7 q-9 1 -5 12 q3 9 4 20 q1 9 -10 14 q-2 3 1 3 q10 -4 13 6 l50 117 q1 1 2 1 q2 -1 1 -2 ZM27 191 q35 -14 35 -28 q-2 -12 -15 -17 q-10 -1 -11 7 q-1 23 -12 36 q0 3 3 2 ZM132 142 q27 -15 29 -26 q-1 -10 -14 -15 q-9 -2 -10 4 q2 21 -6 35 q-1 2 1 2 Z" /><glyph glyph-name="" unicode="&#x51c6;" d="M75 83 q-2 -1 -3 1 q-1 1 0 2 q37 49 61 130 l24 -11 q2 -1 2 -1 q0 0 -2 -2 l-3 -4 q-11 -19 -23 -39 l77 1 l12 13 l17 -15 q2 -2 -1 -2 l-47 -2 l-1 -41 l14 1 l12 11 l15 -13 q1 -1 1 -2 q0 -1 -2 -1 l-40 -1 l-1 -36 l15 1 l12 11 l15 -13 q2 -3 -1 -3 l-41 -1 l0 -42 l28 0 l13 14 l16 -15 q2 -1 2 -2 q0 -1 -2 -1 l-115 -3 l-1 -22 q0 -13 -14 -29 q-7 -5 -7 0 l2 69 l3 95 q-3 -4 -9 -12 q-10 -13 -28 -36 ZM86 160 l-31 -115 q-6 -18 -2 -35 q6 -10 0 -15 q-8 -9 -20 -8 q-9 1 -6 11 q3 10 3 22 q1 10 -12 15 q-1 2 1 3 q12 -4 16 5 l48 118 q1 1 2 1 q2 -1 1 -2 ZM129 66 l0 -42 l37 0 l0 43 l-37 -1 ZM131 153 l-1 -41 l36 1 l0 41 l-35 -1 ZM130 106 l0 -35 l36 1 l0 35 l-36 -1 ZM31 197 q34 -15 34 -28 q-3 -12 -14 -16 q-7 -2 -11 6 q-1 26 -11 36 q0 3 2 2 ZM168 199 q25 -9 26 -19 q-1 -8 -11 -13 q-8 -2 -8 4 q-1 16 -8 27 q-1 2 1 1 Z" /><glyph glyph-name="" unicode="&#x51e0;" d="M110 190 l44 1 l10 16 l26 -14 q2 -1 0 -3 l-7 -11 l-10 -157 q-2 -10 7 -10 q22 -1 41 5 q8 4 15 19 q1 1 2 1 q2 -1 1 -2 q-4 -20 5 -25 q17 -17 -7 -26 q-22 -4 -59 -1 q-27 6 -28 42 l4 161 l-44 -1 l-1 -74 q6 -91 -103 -147 q-2 0 -3 1 q0 2 1 3 q83 48 82 141 l0 68 l-1 29 l25 -16 Z" /><glyph glyph-name="" unicode="&#x51fa;" d="M188 85 l29 -12 q3 -1 0 -4 l-3 -7 l0 -48 q-1 -20 -20 -35 q-4 -3 -6 2 q-4 14 -7 20 l-118 -1 l0 -4 q-3 -15 -14 -22 q-5 -4 -7 1 l1 76 l0 30 l22 -9 q3 -1 1 -3 l-2 -6 l-1 -58 l51 0 l0 107 l-42 -1 q-3 -12 -15 -22 q-6 -4 -7 1 l1 69 l-1 27 l23 -10 q2 -1 1 -4 l-2 -6 l0 -50 l42 1 l-1 51 l-1 45 l30 -8 q3 0 0 -4 q-3 -1 -5 -10 l-1 -74 l47 1 q0 0 1 2 l1 49 l-1 17 l29 -12 q4 -1 1 -4 l-4 -7 l0 -37 q0 -19 -19 -33 q-4 -3 -6 2 q-4 13 -8 18 l-41 -1 l-1 -106 l51 0 q1 0 1 2 l1 58 l0 19 Z" /><glyph glyph-name="" unicode="&#x51fb;" d="M64 156 q-20 -2 -27 -3 l-8 8 l88 2 l0 5 q0 8 -1 23 q0 16 -1 21 l30 -7 q3 0 0 -4 q0 0 -1 -1 q-1 -2 -3 -9 l0 -27 l51 1 l15 14 l19 -17 q2 -1 -1 -3 l-84 -2 l-1 -52 l74 1 l16 18 l20 -20 q1 -1 -2 -3 l-108 -2 l0 -99 l50 1 l1 58 l-1 20 l29 -12 q3 -1 1 -5 l-4 -6 l0 -48 q-1 -19 -18 -34 q-5 -4 -6 1 q-2 11 -7 20 l-118 -3 l0 -1 q-2 -11 -15 -21 q-4 -2 -6 2 l1 43 l0 30 l-1 33 l26 -9 q2 -1 0 -3 l-4 -7 l-1 -61 l48 1 l1 99 l-76 -1 q-17 -1 -26 -4 l-9 9 l111 2 l0 53 l-52 -1 Z" /><glyph glyph-name="" unicode="&#x5206;" d="M52 106 l105 4 l12 14 l24 -16 q2 -1 0 -4 l-8 -9 q-1 -58 -3 -84 q-7 -25 -38 -39 q-2 -1 -2 -1 q-1 1 -1 2 q2 16 -8 22 q-2 1 -1 3 q0 1 2 1 q22 -1 21 13 q2 7 3 37 q1 37 0 55 l-63 -2 l21 -8 q2 -1 2 -1 q0 0 -2 -2 l-2 -7 q-4 -80 -105 -120 q-2 -1 -3 0 q-1 2 1 3 q84 41 84 112 q0 10 0 23 l-11 0 q-2 0 -9 -1 q-9 -1 -11 -2 l-8 7 ZM138 212 q32 -58 112 -97 q2 -2 0 -3 q-13 1 -32 -17 q-59 44 -82 115 l2 2 ZM17 84 q-2 -1 -3 0 q-1 1 1 3 q53 49 80 122 l27 -11 q0 -1 -1 -3 l-6 -5 q-36 -57 -98 -106 Z" /><glyph glyph-name="" unicode="&#x5217;" d="M70 95 q4 -2 12 -7 q7 -4 11 -6 q13 24 20 50 l-34 -1 q-20 -36 -57 -74 q-4 -1 -2 2 q39 51 57 122 l-11 0 q-22 -2 -30 -3 l-7 7 l100 3 l14 13 l16 -15 q2 -2 0 -2 l-76 -2 l15 -12 q2 -1 0 -3 q-7 -17 -16 -32 l31 2 l10 11 l21 -13 q2 -2 -1 -5 l-7 -8 q-9 -27 -25 -52 q25 -17 24 -22 q-2 -14 -10 -21 q-9 -5 -12 4 q-6 15 -13 24 q-31 -43 -89 -88 q-5 -2 -2 2 q49 47 79 103 q-11 14 -20 21 q-1 3 2 2 ZM207 209 l27 -11 q2 -1 2 -1 q0 0 -2 -2 l-5 -9 l0 -162 q1 -33 -30 -49 q-1 -1 -2 0 q-1 0 -1 3 q1 12 -8 18 q-2 2 -1 3 q0 1 2 1 q20 -3 17 11 l0 147 q0 13 -1 34 q0 11 0 15 q0 3 2 2 ZM169 171 l15 -8 q3 -1 2 -6 l-1 -93 q-1 -16 -14 -27 q-4 -3 -6 1 l2 131 q0 3 2 2 Z" /><glyph glyph-name="" unicode="&#x521d;" d="M228 20 q-2 -26 -29 -41 q-2 -1 -3 0 q-2 1 -1 3 q1 15 -11 19 q-2 3 1 3 q22 -3 19 11 l4 158 l-48 -1 l16 -6 q2 -1 0 -5 l-2 -6 l0 -37 q8 -95 -98 -152 q-2 0 -3 2 q0 1 2 2 q45 30 61 61 q17 29 18 87 l1 18 q-1 11 -1 36 l-1 0 q-12 0 -22 -2 l-6 7 l82 1 l11 12 l20 -14 q2 0 0 -2 l-8 -10 l-2 -85 l0 -59 ZM111 135 l16 -17 q0 0 0 -1 q2 -2 -1 -3 l-29 -13 q18 -13 24 -21 q2 -11 -8 -18 q-7 -4 -9 2 q-3 21 -11 35 l-11 -5 l-1 -57 l1 -30 q-2 -14 -19 -33 q-3 -2 -4 -2 q-2 1 -2 3 l4 71 l1 55 q-24 -23 -58 -47 q-2 0 -1 3 q49 43 90 112 l-43 -2 l-18 -2 l-9 7 l40 2 l2 38 l24 -8 q3 0 1 -3 q-6 -6 -7 -26 l11 0 l9 9 l18 -13 q2 -2 -1 -4 l-7 -6 q-10 -17 -30 -40 l-1 -21 q19 17 29 35 Z" /><glyph glyph-name="" unicode="&#x5230;" d="M62 185 q-18 0 -28 -3 l-8 7 l98 2 l14 14 l15 -15 q2 -3 -1 -3 l-68 -1 l18 -13 q2 -1 0 -3 q-14 -12 -48 -46 q26 1 69 3 q-3 12 -15 25 q-2 2 1 2 q33 -14 39 -27 q5 -18 -11 -25 q-7 -2 -10 6 q-1 8 -3 14 q-7 -1 -20 -4 q-14 -4 -20 -5 l20 -7 q4 -2 1 -5 q-4 -4 -4 -15 l0 -17 l22 1 l13 13 l17 -15 q1 -1 -1 -3 l-51 -1 l0 -47 l56 9 q2 1 1 -2 l-114 -42 q-5 -2 -8 2 l-11 19 q-1 2 -1 2 q1 1 2 1 q3 0 11 1 q15 2 24 3 l18 3 l0 50 l-15 0 q-3 0 -8 -1 q-13 0 -19 -2 l-8 8 l50 1 l1 16 q-1 17 -1 26 q-2 0 -5 -1 q-19 -4 -33 -10 q-2 0 -3 2 l-9 19 q0 3 1 2 q8 0 12 0 q20 28 37 62 l-17 0 ZM205 209 l27 -11 q2 -1 2 -1 q0 0 -2 -2 l-5 -9 l0 -165 q1 -33 -30 -49 q-1 -1 -2 0 q-1 0 -1 3 q1 12 -8 18 q-2 2 -1 3 q0 1 2 1 q19 -3 17 11 l0 150 q0 13 -1 34 q0 11 0 15 q-1 3 2 2 ZM169 170 l16 -7 q3 -1 1 -6 l-1 -95 q0 -14 -13 -25 q-6 -3 -6 1 l1 130 q0 3 2 2 Z" /><glyph glyph-name="" unicode="&#x5236;" d="M108 198 l0 -20 l0 -12 l16 1 l11 12 l14 -14 q2 -2 0 -2 l-41 -1 l0 -32 l28 1 l11 12 l15 -14 q0 -2 -1 -2 l-53 -2 l-1 -31 l25 1 l8 11 l20 -13 q2 -1 0 -3 l-5 -7 l0 -36 q1 -24 -25 -37 q-2 0 -2 2 q0 12 -9 17 q-2 1 1 2 q15 -1 13 5 l-1 54 l-25 -1 l0 -72 q1 -27 -13 -44 q-3 -3 -5 -2 q-3 0 -3 4 l1 64 l1 49 l-27 0 l0 -54 q0 -13 -10 -26 q-3 -3 -4 -2 q-2 1 -2 4 l0 63 l-1 26 q0 2 2 1 l15 -7 l27 0 l0 31 l-14 0 q-13 0 -27 -2 l-7 5 q-14 -20 -37 -42 q-3 -1 -1 2 q42 43 47 120 l21 -9 q3 -2 0 -5 l-3 -4 q-4 -12 -7 -24 l28 1 l0 5 q0 26 -1 41 l20 -10 q3 0 1 -4 ZM211 209 l27 -11 q2 -1 0 -3 l-6 -9 l1 -162 q1 -33 -29 -49 q-4 -2 -4 3 q2 12 -8 19 q-1 1 -1 2 q0 1 2 1 q19 -3 17 12 l0 146 q0 13 -1 34 q0 11 0 15 q0 3 2 2 ZM175 170 l15 -7 q3 -1 1 -6 l-2 -95 q0 -16 -12 -25 q-4 -3 -6 1 l2 130 q0 4 2 2 ZM58 161 q-6 -18 -17 -33 l47 1 l0 33 l-30 -1 Z" /><glyph glyph-name="" unicode="&#x529b;" d="M117 213 l26 -9 q3 -1 1 -3 l-3 -6 q-1 -22 -1 -42 l53 1 l12 14 l24 -15 q3 -1 1 -3 l-9 -11 q0 -10 -1 -42 q-1 -37 -1 -50 q0 -23 -2 -31 q-7 -27 -39 -41 q-3 -1 -3 2 q0 16 -8 23 q-2 1 -2 2 q0 2 2 1 q23 -2 23 17 q4 46 5 128 l-56 -2 q-2 -84 -29 -117 q-25 -36 -102 -61 q-2 -1 -2 1 q0 2 1 3 q66 25 86 60 q23 33 25 113 l-25 -1 q-24 0 -38 -4 l-9 10 l72 2 q0 27 -1 61 Z" /><glyph glyph-name="" unicode="&#x529f;" d="M151 212 l23 -10 q3 -2 1 -5 l-2 -7 l0 -34 l27 1 l10 13 l23 -13 q2 -1 -1 -3 l-7 -9 l-1 -65 l1 -54 q0 -28 -30 -46 q-2 -1 -3 0 q-2 1 -1 3 q1 12 -8 18 q-1 1 -1 2 q0 1 2 1 q18 0 16 12 l1 136 l-28 -1 l0 -33 q9 -104 -126 -152 q-4 1 -1 5 q112 46 106 147 l0 32 l-5 0 q-14 0 -23 -3 l-7 7 l35 1 l0 19 q0 31 -1 38 ZM23 165 q-4 3 0 6 l76 2 l13 14 l17 -15 q2 -2 0 -3 l-44 -1 l-2 -107 l47 17 q4 1 2 -2 l-61 -40 q-6 -4 -16 -10 q-12 -8 -17 -11 q0 0 -1 -1 q-1 -2 -3 0 l-18 21 q-3 3 0 4 q19 3 40 12 l5 1 l-1 115 l-37 -2 Z" /><glyph glyph-name="" unicode="&#x52a0;" d="M213 177 l22 -13 q2 0 0 -2 l-6 -10 l1 -102 l1 -2 q1 -2 -1 -2 q-19 0 -55 -1 l0 -29 q-1 -18 -14 -31 q-6 -3 -6 1 l1 58 l0 107 q0 16 0 26 q0 2 2 0 l18 -12 l29 1 l8 11 ZM65 216 l22 -10 q3 -2 1 -5 l-2 -6 l0 -33 l25 1 l10 13 l23 -13 q2 -1 -1 -3 l-7 -10 l-1 -68 l1 -53 q1 -30 -30 -47 q-2 -1 -3 -1 q-2 1 -1 3 q1 13 -8 19 q-2 1 -1 2 q0 1 2 1 q18 0 16 12 l1 140 l-26 -1 l0 -34 q4 -100 -81 -152 q-5 -2 -2 2 q39 34 50 62 q13 29 13 88 l0 33 l-12 0 q-8 0 -23 -3 l-7 7 l42 2 l0 16 q0 7 -1 24 q0 11 0 14 ZM176 161 l-1 -111 l31 1 l-2 111 l-28 -1 Z" /><glyph glyph-name="" unicode="&#x52a8;" d="M160 212 l23 -10 q3 -2 1 -5 l-2 -6 l0 -35 l24 1 l11 13 l22 -13 q2 -1 0 -3 l-7 -9 l-2 -65 l1 -58 q-2 -27 -30 -42 q-3 -2 -4 3 q1 12 -8 18 q-1 1 -1 2 q0 1 2 1 q18 0 16 12 l2 136 l-26 -1 l0 -32 q7 -111 -109 -153 q-2 0 -2 2 q-1 1 1 2 q52 26 70 56 q18 30 19 93 l0 31 l-3 0 q-6 0 -19 -3 q-1 0 -2 0 l-8 7 l32 1 l0 19 q0 31 -1 38 ZM52 113 q-5 0 -13 -1 q-10 0 -14 -1 l-8 6 l96 3 l12 12 l16 -15 q1 -1 -1 -3 l-69 -1 l19 -9 q2 -2 0 -4 q-24 -40 -50 -73 l62 12 q-4 15 -12 24 q-1 3 2 2 q33 -23 37 -38 q0 -13 -15 -20 q-8 -3 -8 6 q0 12 -3 23 q-43 -17 -78 -37 q-3 -2 -4 0 l-8 22 q-1 3 1 3 q12 0 15 3 q19 25 34 86 l-11 0 ZM68 174 q-18 0 -28 -2 l-7 6 l63 2 l10 11 l15 -13 q2 -1 0 -3 l-53 -1 Z" /><glyph glyph-name="" unicode="&#x52a9;" d="M137 48 l1 -2 q-65 -28 -101 -47 q-3 -4 -4 -1 l-10 21 q-1 3 0 4 q4 0 11 2 q5 1 8 1 l1 122 q0 32 -2 48 q0 2 3 1 l21 -12 q1 -1 1 -1 l34 2 l8 11 l19 -10 q2 -1 2 -1 q0 -1 -2 -2 l-7 -9 l0 -131 q3 1 10 2 q5 2 7 2 ZM213 164 l21 -12 q3 0 1 -2 l-6 -9 q0 -5 -1 -18 q-2 -70 -5 -96 q-4 -36 -35 -52 q-4 0 -3 2 q2 15 -9 19 q-1 1 -1 2 q0 1 1 1 q24 -3 24 28 q4 51 4 118 l-27 -1 l0 -22 q4 -91 -84 -159 q-2 0 -3 1 q0 1 1 2 q38 36 51 69 q14 31 15 88 l1 20 l-3 0 q-12 0 -22 -2 l-9 7 l34 2 l0 35 l-1 26 q-1 3 1 3 l21 -8 q2 -1 0 -4 l-1 -6 l-1 -46 l27 1 l9 13 ZM88 98 q3 -1 0 -4 l-27 -2 l0 -62 q6 2 19 5 q13 3 19 4 l0 142 l-34 -2 l-5 -6 l0 -35 l28 2 q4 -3 0 -5 l-28 -2 l1 -36 l27 1 Z" /><glyph glyph-name="" unicode="&#x52fa;" d="M11 93 q-3 -1 -3 0 q-1 1 1 3 q65 51 95 117 l21 -15 q2 -3 -1 -5 l-5 -3 q-4 -5 -13 -15 q-5 -5 -7 -8 l103 3 l11 13 l23 -15 q2 -1 0 -3 l-9 -10 l-2 -89 l1 -33 q-2 -42 -42 -63 q-1 -1 -2 -1 q-1 1 -1 2 q2 16 -11 23 q-2 1 -1 2 q0 1 2 1 q32 -2 30 36 l2 131 l-110 -3 q-26 -28 -82 -68 ZM84 106 q55 -16 59 -34 q1 -15 -11 -24 q-5 -4 -8 -4 q-4 1 -5 7 q-11 36 -35 53 q-3 2 0 2 Z" /><glyph glyph-name="" unicode="&#x5300;" d="M11 93 q-3 -1 -3 0 q-1 1 1 3 q65 51 95 117 l21 -15 q2 -3 -1 -5 l-5 -3 q-4 -5 -13 -15 q-5 -5 -7 -8 l103 2 l11 14 l22 -15 q2 -1 0 -3 l-8 -11 l-2 -88 l0 -33 q-1 -43 -41 -63 q-3 -2 -4 1 q2 16 -11 23 q-2 3 1 3 q34 -2 31 36 l2 131 l-110 -3 q-26 -28 -82 -68 ZM180 72 q5 1 2 -2 l-74 -35 q-29 -14 -37 -21 q-3 -1 -5 0 l-18 25 q-1 1 -1 2 q0 1 1 1 q17 1 46 8 l86 22 ZM89 128 q42 -12 44 -22 q1 -11 -10 -21 q-8 -3 -11 5 q-11 23 -24 36 q-2 3 1 2 Z" /><glyph glyph-name="" unicode="&#x5339;" d="M173 175 q2 -1 0 -3 l-4 -7 l-14 -85 q-2 -12 9 -11 q12 -1 34 3 q9 2 14 16 q1 2 3 2 q1 -1 1 -3 q-2 -14 7 -17 q15 -17 -13 -26 q-23 -4 -44 0 q-27 4 -26 39 l6 85 l0 17 l-32 -1 l15 -6 q3 -1 1 -3 l-2 -6 q-1 -88 -66 -144 q-2 -1 -3 1 q-1 2 1 3 q47 48 46 155 l-41 -1 l0 5 l122 3 l15 15 l19 -17 q2 -3 -1 -3 l-69 -1 l22 -10 ZM37 200 l24 -13 l-3 -9 l-2 -176 l146 3 l17 17 l19 -18 q1 -2 1 -2 q-1 -1 -2 -1 l-180 -5 q-6 -14 -19 -24 q-3 -1 -5 2 l2 57 l2 123 q0 26 -2 45 q0 1 2 1 Z" /><glyph glyph-name="" unicode="&#x533a;" d="M45 202 l29 -14 l0 -1 l114 2 l15 14 l18 -16 q2 -3 -1 -3 l-149 -3 l-2 -4 l-3 -176 l132 1 l17 18 l20 -19 q1 -2 1 -2 q-1 -1 -2 -1 l-168 -2 q-6 -15 -17 -23 q-4 -1 -7 2 l3 66 l0 124 q0 30 -1 36 q1 2 1 1 ZM169 179 l24 -16 q3 -1 0 -5 l-5 -6 q-12 -27 -30 -53 q1 -1 3 -2 q31 -28 39 -37 q4 -3 1 -13 q-5 -12 -14 -19 q-5 -2 -8 5 q-9 16 -33 49 q-31 -39 -72 -72 q-2 -1 -3 0 q0 1 1 3 q35 29 63 82 q-27 35 -47 55 q-2 2 -2 3 q1 1 4 0 q4 -3 12 -10 q26 -20 41 -32 q18 37 26 68 Z" /><glyph glyph-name="" unicode="&#x5355;" d="M154 214 l22 -14 q2 0 0 -3 l-6 -4 l-32 -30 l35 1 l9 12 l22 -12 q2 0 1 -2 l-5 -9 l0 -28 l1 -27 q-1 -12 -13 -25 q-5 -4 -8 0 q-6 10 -9 13 l-33 0 l0 -34 l70 1 l17 16 l17 -17 q1 -3 -1 -3 l-103 -2 l0 -5 l1 -45 q-4 -16 -15 -27 q-8 -7 -9 0 l1 76 l-67 -1 q-19 -1 -28 -3 l-6 8 l101 1 l0 34 l-37 -1 q-6 -10 -13 -15 q-6 -3 -7 2 l1 43 l0 39 l-1 19 q-1 3 2 1 l18 -11 l52 1 l23 51 ZM174 159 l-36 -1 l0 -29 l26 0 q2 1 2 -2 q-1 -2 -3 -2 l-25 0 l0 -35 l36 1 l0 68 ZM79 123 l0 -34 l37 1 l0 34 l-37 -1 ZM79 157 l0 -30 l37 1 l0 30 l-37 -1 ZM80 207 q32 -11 31 -18 q1 -11 -9 -16 q-6 -3 -8 3 q-5 20 -15 29 q-1 2 1 2 Z" /><glyph glyph-name="" unicode="&#x535c;" d="M129 -2 q-5 -19 -23 -31 q-3 -1 -5 4 l2 65 l0 135 l-1 44 l30 -10 q1 0 2 -1 q-1 -1 -2 -2 q0 0 -1 -1 q-1 -2 -3 -9 l0 -54 q58 -18 66 -32 q0 -16 -12 -25 q-7 -6 -13 5 q-24 38 -41 47 l0 -94 l1 -41 Z" /><glyph glyph-name="" unicode="&#x5378;" d="M68 116 q-18 -1 -28 -3 l-7 7 l50 2 l0 18 q0 17 -2 34 l-20 -1 q-22 -42 -54 -82 q-3 -1 -2 2 q31 52 47 123 l25 -9 q2 -2 0 -4 l-3 -4 q-2 -5 -7 -14 q-3 -5 -4 -8 l59 2 l13 14 l15 -15 q2 0 0 -2 l-62 -2 l20 -7 q2 -2 0 -4 l-3 -6 l-1 -34 l23 1 l13 14 l16 -15 q0 -2 -1 -2 l-51 -3 l0 -34 l39 3 q2 0 2 -2 q0 -3 -2 -2 l-39 -4 l-1 -51 l43 22 q1 1 2 -1 q0 -1 -1 -2 l-73 -54 q-1 -1 -2 -2 q-15 -11 -21 -18 q-1 -3 -4 -1 l-18 18 q-1 1 -1 1 q0 1 1 2 q12 4 21 9 l-1 61 q0 7 -1 18 q0 13 -1 18 l22 -10 q2 -1 0 -4 l-2 -6 l-2 -70 l19 10 l-1 98 l-15 -1 ZM219 199 l21 -12 q2 -1 0 -3 l-6 -8 l0 -74 l1 -32 q-2 -20 -27 -32 q-3 -1 -3 1 q2 14 -7 19 q-2 1 1 3 q13 0 13 4 l-1 118 l-31 -2 l0 -10 l0 -120 l1 -43 q0 -21 -15 -41 q-2 -3 -4 -2 q-3 1 -3 4 l2 66 l-1 126 q0 8 -1 21 q0 16 -1 22 l22 -10 l0 -8 l30 2 l9 11 Z" /><glyph glyph-name="" unicode="&#x5385;" d="M60 202 q0 3 2 2 l24 -11 l124 2 l14 16 l20 -17 q2 -3 -1 -3 l-160 -4 l0 -68 q0 -47 -16 -75 q-16 -30 -61 -68 q-2 0 -2 2 q-1 1 1 2 q35 32 46 64 q12 28 11 88 l-1 40 l-1 30 ZM131 141 q-17 0 -27 -3 l-10 8 l112 2 l15 17 l18 -17 q1 -1 1 -2 q0 -1 -2 -1 l-78 -3 l21 -8 q2 -1 0 -4 l-3 -8 l-1 -58 l1 -46 q1 -32 -34 -45 q-3 -1 -3 -1 q-1 0 -1 3 q1 15 -9 20 q-1 1 0 3 q0 1 2 0 q25 -2 21 9 l1 135 l-24 -1 Z" /><glyph glyph-name="" unicode="&#x538b;" d="M122 95 q-20 0 -26 -2 l-9 8 l51 0 l0 25 l-1 45 l29 -8 q2 -1 0 -4 q-3 -3 -4 -10 l0 -47 l34 0 l13 13 l17 -15 q2 -2 -1 -2 l-63 -2 l-1 -101 l47 1 l15 16 l20 -18 q1 -2 -1 -3 q0 1 -1 0 l-153 -3 q-12 0 -24 -2 q1 1 -2 0 l-9 8 l87 1 l-2 101 l-16 -1 ZM60 201 q0 3 2 2 l25 -14 l115 2 l15 15 l19 -16 q2 -3 -1 -3 l-152 -4 l0 -64 q7 -81 -80 -142 q-2 -1 -2 1 q0 2 1 3 q36 32 48 65 q13 30 12 87 l0 37 l-2 31 ZM175 70 q40 -16 42 -27 q1 -12 -12 -21 q-6 -3 -8 4 q-7 29 -23 42 q0 2 1 2 Z" /><glyph glyph-name="" unicode="&#x539a;" d="M188 115 l-69 -2 q-2 -6 -11 -12 q-3 -2 -4 -2 q-2 1 -2 4 l0 47 l-1 22 q0 2 2 1 l18 -9 l71 1 l8 13 l23 -12 q4 -1 1 -4 l-5 -8 l0 -31 l1 -5 q2 -4 -1 -4 q-6 0 -18 1 q-9 0 -13 0 ZM64 201 q-1 1 2 1 l22 -13 l116 2 l15 15 l18 -16 q2 -3 -1 -3 l-148 -4 l0 -69 q7 -83 -84 -145 q-2 0 -2 1 q0 2 2 3 q37 33 49 65 q13 29 12 89 l0 43 l-1 31 ZM147 74 l14 -6 l20 24 l-44 -2 q-19 -1 -27 -4 l-10 7 l83 4 l12 11 l21 -19 q1 -1 0 -2 q0 -1 -2 -1 q-18 0 -50 -19 l8 -3 q3 0 1 -2 q-4 -2 -4 -8 l0 -7 l46 1 l12 14 l19 -14 q1 -2 0 -2 q0 -1 -2 -1 l-75 -3 l0 -9 l1 -23 q1 -23 -28 -38 q-4 -2 -4 3 q1 16 -11 18 q-2 1 -1 2 q0 1 2 1 q22 -2 19 7 l0 28 l0 10 l-35 -1 q-18 -1 -27 -4 l-9 9 l71 1 q0 6 -1 17 q0 6 0 9 q0 3 1 2 ZM120 159 l0 -16 l67 2 q2 -1 2 -2 q0 -2 -2 -3 l-67 -2 l0 -20 l73 2 l0 41 l-73 -2 Z" /><glyph glyph-name="" unicode="&#x53a8;" d="M57 200 q0 3 2 2 l24 -11 l125 2 l14 15 l20 -17 q1 -2 -2 -2 l-159 -3 l-1 -70 q0 -52 -15 -79 q-16 -32 -61 -68 q-2 0 -2 2 q-1 1 1 2 q35 30 46 63 q11 28 10 93 l-1 41 l-1 30 ZM220 175 q2 0 2 -1 q0 0 -2 -2 l-1 -6 l-1 -31 l2 0 l10 11 l13 -12 q2 -1 0 -2 l-25 -1 l0 -76 l0 -41 q1 -27 -28 -42 q-3 -1 -2 2 q0 15 -7 18 q-1 1 -1 2 q0 1 2 1 q19 -1 16 9 l1 126 l-32 -1 q-3 -1 -4 1 q0 3 3 4 l33 0 l-1 50 l22 -9 ZM141 140 l20 -11 q3 -1 1 -3 l-5 -6 l0 -38 l1 -3 q1 -1 0 -2 q-18 2 -50 1 q-1 -8 -12 -16 q-6 -3 -6 1 l0 27 l0 25 l-1 22 l19 -7 l25 1 l8 9 ZM170 23 q1 0 2 -1 q-1 -1 -2 -2 l-52 -24 q-20 -8 -32 -16 q-2 -3 -4 0 l-16 15 q-1 1 -1 1 q0 1 1 2 q15 2 38 8 l19 4 q13 42 15 60 l23 -9 q2 -1 0 -4 l-33 -45 l42 11 ZM108 126 l0 -44 l26 1 l0 43 l-26 0 ZM86 155 q-3 0 -3 3 q-1 2 2 2 l55 1 l12 12 l15 -13 q1 -1 1 -2 q0 -1 -2 -1 l-80 -2 ZM95 56 q23 -16 22 -24 q-3 -10 -13 -13 q-7 -1 -6 6 q2 17 -5 29 q-1 3 2 2 ZM169 104 q23 -14 24 -23 q-2 -6 -12 -11 q-6 -2 -6 4 q0 18 -8 28 q0 3 2 2 Z" /><glyph glyph-name="" unicode="&#x53c2;" d="M159 190 q36 -20 41 -33 q-1 -9 -11 -17 q-4 -3 -6 -2 q-2 1 -3 5 q-1 3 -2 8 q0 4 -3 12 q-11 -2 -30 -5 q-12 -2 -18 -3 l13 -7 q3 0 1 -2 l-4 -4 q-4 -7 -10 -13 l75 1 l14 16 l18 -17 q1 -1 1 -2 q0 -1 -2 -1 l-83 -2 q16 -32 95 -47 q3 -1 0 -4 q-17 -2 -31 -22 q-49 22 -68 73 l-23 -1 q-43 -52 -108 -84 q-4 -1 -2 2 q54 34 85 82 l-38 -1 q-20 -2 -27 -3 l-9 8 l78 2 q7 11 13 23 q-30 -6 -46 -12 q-3 -3 -5 1 l-8 20 l21 0 q23 28 38 55 l20 -14 q2 -1 1 -2 q0 -1 -2 -2 l-5 -3 q-19 -15 -46 -33 l90 4 q-6 13 -15 23 q-2 1 1 1 ZM31 -35 q-2 0 -3 1 q0 1 2 2 q86 32 138 83 l20 -16 q2 -1 -1 -3 l-5 -3 q-58 -35 -151 -64 ZM148 74 l16 -12 q0 -1 -1 -3 q-34 -23 -101 -49 q-3 0 -1 2 q51 27 84 61 q1 3 3 1 ZM133 104 l18 -13 q2 -1 0 -2 q-29 -20 -86 -47 q-2 -1 -3 1 q-1 1 1 2 q39 22 70 59 Z" /><glyph glyph-name="" unicode="&#x53c8;" d="M113 59 q-31 52 -37 127 q-9 -1 -23 -3 q-3 -1 -4 -1 l-11 9 l136 4 l11 13 l26 -17 q2 -1 2 -1 q0 -1 -2 -2 l-9 -9 q-21 -67 -63 -115 q38 -35 110 -64 q3 -1 1 -4 q-26 0 -45 -23 q-53 32 -83 72 q-44 -44 -105 -72 q-2 -1 -3 0 q-1 1 1 3 q56 31 98 83 ZM79 186 q8 -66 47 -109 q34 51 49 113 l-96 -4 Z" /><glyph glyph-name="" unicode="&#x53cb;" d="M103 214 l31 -13 q2 0 2 -1 q0 0 -2 -2 l-5 -5 q-4 -16 -7 -31 l80 1 l17 16 l20 -18 q1 -3 -1 -3 l-118 -2 q-6 -22 -14 -41 l74 2 l11 13 l23 -15 q2 -2 -1 -3 l-7 -7 q-16 -37 -45 -67 q35 -26 83 -41 q2 -1 2 -2 q1 -2 -1 -2 q-21 -2 -39 -24 q-40 27 -60 55 q-38 -34 -94 -55 q-4 -2 -2 2 q53 27 87 66 q-19 31 -27 73 l-6 0 q-22 -53 -86 -114 q-2 -2 -3 -1 q-2 1 -1 3 q64 70 81 157 l-43 0 q-18 -1 -27 -3 l-9 8 l80 1 q4 25 7 53 ZM180 112 l-67 -2 q11 -35 35 -59 q19 27 32 61 Z" /><glyph glyph-name="" unicode="&#x53cc;" d="M128 177 q-3 -1 -3 2 q0 3 3 4 l68 2 l10 13 l23 -14 q2 -2 0 -4 l-8 -10 q-17 -65 -43 -103 q24 -41 75 -77 q3 -1 0 -4 q-20 2 -38 -14 q-36 40 -51 75 q-26 -35 -81 -78 q-2 -1 -3 0 q-1 1 0 3 q48 40 77 94 q-13 37 -17 111 l-12 0 ZM123 51 q-3 -11 -13 -20 q-5 -4 -8 3 q-9 21 -22 41 q-30 -52 -75 -95 q-2 -1 -2 0 q-1 1 0 3 q43 51 65 110 q-14 22 -37 49 q-1 3 2 2 q2 -2 7 -6 q21 -17 34 -28 q10 30 15 60 l-56 -3 q-3 0 -4 3 q-1 3 2 4 l57 2 l13 15 l23 -16 q2 -1 0 -3 l-9 -10 q-10 -37 -25 -67 q18 -15 31 -32 q5 -6 2 -12 ZM196 180 l-53 -3 q8 -55 24 -90 q20 43 29 93 Z" /><glyph glyph-name="" unicode="&#x53e3;" d="M202 38 q-26 2 -105 2 q-14 0 -19 0 l0 -13 q-3 -19 -16 -31 q-6 -3 -7 1 l1 61 l0 83 l-2 38 q0 5 3 3 l22 -15 l91 2 l13 16 l25 -15 q1 -1 1 -3 l-7 -9 l1 -110 l2 -7 q1 -2 0 -3 q-1 -1 -3 0 ZM77 162 l1 -115 l95 1 l-1 115 l-95 -1 Z" /><glyph glyph-name="" unicode="&#x53ea;" d="M201 90 q-34 3 -115 3 l0 -8 q-2 -9 -11 -16 q-11 -8 -12 -2 l1 49 l-1 78 q0 5 4 3 l19 -11 l84 2 l12 14 l25 -13 q2 -1 0 -3 l-6 -10 l1 -76 l2 -7 q2 -1 1 -2 q-1 -1 -4 -1 ZM86 180 l0 -82 l86 1 l-1 84 l-85 -3 ZM107 72 l16 -23 q3 -4 -2 -8 q-49 -45 -114 -75 q-2 -1 -2 1 q-1 1 1 3 q63 34 97 101 q1 2 2 2 q0 1 2 -1 ZM221 17 q4 -17 -11 -29 q-11 -6 -15 3 q-17 38 -51 66 q-1 1 -1 2 q0 1 2 1 l38 -16 q35 -16 38 -27 Z" /><glyph glyph-name="" unicode="&#x53ef;" d="M124 156 l20 -13 q0 -1 0 -3 l-6 -7 l0 -62 l2 -3 q0 -2 -1 -2 q-16 2 -66 -1 l0 -6 q-1 -18 -13 -30 q-3 -2 -4 -1 q-1 0 -1 2 l0 95 q0 5 -1 18 q0 6 0 8 q0 3 2 2 l17 -10 l41 2 l10 11 ZM55 180 q-12 -1 -25 -3 q1 1 -2 0 l-8 8 l183 4 l16 17 l21 -19 q2 -2 0 -2 l-61 -2 l21 -8 q0 0 1 -1 q1 0 0 -2 l-4 -9 l0 -94 l2 -48 q-1 -37 -40 -53 q-3 -1 -2 2 q1 17 -9 25 q-1 1 -1 2 q1 1 3 1 q24 -3 23 10 l0 126 l-2 49 l-116 -3 ZM114 140 l-41 -2 l0 -68 l42 2 l-1 68 Z" /><glyph glyph-name="" unicode="&#x5403;" d="M76 190 l24 -13 q0 -1 0 -3 l-8 -10 l1 -96 l2 -2 q0 -2 -1 -2 q-21 0 -49 -1 l0 -16 q-3 -18 -15 -32 q-4 -3 -6 1 l2 62 l0 85 q0 5 -1 18 q0 6 0 8 q0 2 2 1 l18 -13 l21 1 l10 12 ZM173 116 l-31 -2 q-15 -1 -28 -4 l-9 7 l66 5 l12 12 l26 -18 l-11 -9 l-69 -87 q-5 -6 -2 -9 q2 -3 11 -4 q36 -3 64 3 q15 2 23 26 q1 2 2 2 q2 -1 1 -3 q-3 -18 7 -23 q19 -17 -7 -29 q-33 -8 -85 -2 q-41 7 -28 46 l58 89 ZM45 172 l0 -104 l23 1 l0 104 l-23 -1 ZM139 216 l22 -12 q2 -1 0 -3 l-5 -5 q-6 -13 -15 -26 l59 3 l14 16 l19 -17 q2 -1 -1 -3 l-96 -4 q-16 -22 -40 -45 q-2 -2 -2 2 q31 40 45 94 Z" /><glyph glyph-name="" unicode="&#x5404;" d="M97 214 l21 -14 q2 -1 -1 -3 l-5 -6 q-4 -4 -7 -8 l56 3 l14 12 l24 -18 q2 -2 0 -3 l-12 -7 q-25 -24 -50 -43 q33 -21 112 -40 q3 -2 0 -4 q-15 0 -32 -22 q-60 21 -93 56 q-36 -27 -101 -59 q-2 -1 -3 1 q0 1 1 3 q54 31 93 67 q-13 18 -22 39 q-27 -28 -53 -48 q-3 -1 -2 2 q36 39 57 90 q0 3 3 2 ZM155 66 l11 13 l23 -13 q1 -1 1 -3 l-6 -8 l1 -57 l2 -7 q1 -3 0 -3 q0 -1 -3 -1 q-31 3 -80 3 q-7 0 -10 0 q-5 -18 -17 -24 q-3 0 -5 4 l0 102 q0 5 3 3 l18 -10 l62 1 ZM93 58 l0 -61 l64 0 l0 63 l-64 -2 ZM159 180 l-59 -3 q-1 -1 -2 -2 q0 -1 -3 -3 q10 -21 28 -34 q24 24 36 42 Z" /><glyph glyph-name="" unicode="&#x5408;" d="M166 72 l11 14 l24 -13 q1 -1 1 -3 l-7 -9 l1 -56 l2 -7 q1 -3 0 -3 q0 -1 -3 -1 q-42 4 -104 2 q-5 -18 -19 -28 q-3 -1 -4 2 l1 49 l1 33 l-1 27 q0 2 1 2 q0 1 2 0 l19 -10 l75 1 ZM121 216 l25 -11 q3 -1 0 -4 l-3 -3 q34 -55 111 -87 q2 -4 0 -4 q-14 -1 -29 -18 q-60 44 -86 106 l0 -1 q-45 -70 -133 -127 q-2 -1 -3 0 q0 2 1 3 q77 60 117 146 ZM91 65 l0 -62 l77 1 l-1 62 l-76 -1 ZM118 111 q-15 -1 -28 -3 l-7 8 l71 1 l12 13 l18 -15 q1 -3 -1 -3 l-65 -1 Z" /><glyph glyph-name="" unicode="&#x540c;" d="M196 206 l24 -12 q2 -3 0 -4 l-7 -10 l0 -131 l1 -36 q0 -26 -33 -42 q-3 0 -3 2 q2 17 -10 21 q-1 0 -1 1 q1 2 2 2 q18 -2 18 4 l-1 186 l-117 -1 l1 -176 q-2 -19 -15 -36 q-3 -3 -5 -2 q-3 0 -3 4 l2 59 l0 131 l-1 35 q0 3 2 1 l21 -11 l115 1 l10 14 ZM151 124 l22 -11 q2 -1 0 -2 l-5 -9 l-1 -47 l2 -4 q0 -2 -1 -2 q-9 0 -60 0 q0 -9 -13 -22 q-3 -2 -4 -1 q-1 0 -1 2 l1 37 l-1 30 q0 16 0 25 q0 3 2 1 l18 -10 l33 2 l8 11 ZM109 106 l0 -52 l34 1 l1 52 l-35 -1 ZM83 149 q-3 -1 -4 2 q0 3 3 3 l66 1 l12 13 l16 -14 q1 -1 1 -2 q0 -1 -2 -1 l-92 -2 Z" /><glyph glyph-name="" unicode="&#x5411;" d="M125 216 l15 -19 q1 -1 -2 -3 q-17 -9 -66 -28 q-3 0 -1 2 q37 25 54 48 ZM201 178 l25 -13 q2 -1 0 -3 l-7 -10 l1 -90 l1 -45 q0 -32 -34 -47 q-2 -1 -2 2 q1 17 -12 22 q-1 1 -1 2 q0 1 1 1 q23 -2 21 5 l-2 157 l-130 -2 l1 -149 q-2 -19 -17 -35 q-2 -3 -4 -2 q-2 1 -2 4 l1 76 l1 86 l-1 36 q0 2 3 1 l20 -12 l127 3 l10 13 ZM104 113 l-1 -55 l44 1 l-1 55 l-42 -1 ZM146 120 l9 13 l22 -13 q2 -1 0 -3 l-6 -9 l1 -50 l2 -4 q1 -3 -2 -3 q-22 2 -69 0 q-2 -14 -14 -26 q-4 -3 -5 1 l1 48 l0 35 l0 21 q0 2 1 0 l18 -11 l42 1 Z" /><glyph glyph-name="" unicode="&#x543e;" d="M161 61 l10 14 l25 -13 q3 -1 1 -4 l-6 -8 l0 -50 l3 -6 q1 -2 -1 -3 q-15 1 -38 1 q-12 0 -27 0 q-13 0 -40 0 q-4 -13 -18 -25 q-5 -1 -5 2 l1 41 l0 32 l-1 28 q0 2 2 1 l21 -11 l73 1 ZM65 187 q-13 0 -30 -3 q-1 0 -1 0 l-8 8 l159 2 l15 16 l18 -18 q2 -1 0 -3 l-105 -1 l-5 -36 l43 1 l1 -6 l-44 -1 l-8 -51 l56 0 l3 55 l-2 2 l13 13 l20 -13 q2 -1 1 -3 l-6 -6 l-2 -48 l25 1 l16 17 l18 -19 q1 -2 1 -2 q-1 -1 -2 -1 l-187 -2 q-21 0 -31 -2 l-8 7 l63 0 l6 51 l-7 0 q-12 0 -22 -2 l-7 7 l37 1 l4 37 l-24 -1 ZM88 55 l0 -58 l74 1 l-1 57 l-73 0 Z" /><glyph glyph-name="" unicode="&#x5473;" d="M152 215 l24 -11 q2 -1 0 -3 l-3 -7 l-1 -31 l24 1 l12 12 l15 -13 q1 -2 -2 -3 l-49 -2 l0 -44 l37 1 l13 12 l16 -14 q2 -1 -1 -3 l-58 -1 q14 -55 69 -98 q3 -3 0 -4 q-13 2 -30 -11 q-26 30 -42 113 l-5 0 l-1 -68 l1 -46 q-3 -16 -17 -27 q-5 -4 -6 1 l2 74 l0 32 q-37 -52 -80 -87 q-2 -2 -4 -1 q-1 1 1 3 q39 41 75 118 l-12 0 q-16 -1 -28 -3 l-7 7 l55 1 l0 44 l-42 -1 q-4 0 -4 3 q0 2 3 2 l43 2 l1 16 q0 9 -1 24 q0 8 0 11 q0 1 2 1 ZM75 190 l24 -13 q2 -1 0 -3 l-8 -10 l2 -96 l1 -2 q1 -2 -1 -2 q-16 0 -49 -1 l0 -16 q0 -14 -14 -31 q-3 -2 -4 -2 q-2 1 -2 3 l2 61 l0 85 q0 5 -1 18 q0 6 0 8 q0 2 3 1 l17 -12 l22 0 l8 12 ZM45 173 l-1 -105 l25 1 l-1 105 l-23 -1 Z" /><glyph glyph-name="" unicode="&#x54c1;" d="M84 186 l0 -57 l79 0 l-1 59 l-78 -2 ZM162 193 l11 14 l24 -13 q2 -1 0 -3 l-6 -8 l0 -54 l3 -6 q2 -4 -3 -4 q-20 2 -50 3 q-33 1 -57 0 q-4 -13 -16 -24 q-6 -1 -6 3 l1 45 l0 31 l-1 24 q0 2 1 2 q0 1 2 0 l19 -11 l78 1 ZM48 78 l0 -60 l43 0 l0 60 l-43 0 ZM90 83 l10 14 l23 -13 q2 0 0 -2 l-5 -7 l0 -56 l2 -5 q2 -4 -3 -4 q-28 3 -69 2 l0 -14 q-2 -10 -14 -21 q-3 -3 -4 -2 q-2 1 -2 4 l1 42 l1 42 l-1 32 l19 -12 l42 0 ZM153 79 l-1 -63 l45 1 l1 63 l-45 -1 ZM197 86 l10 14 l24 -13 q2 -1 0 -3 l-5 -7 l-1 -59 l2 -6 q1 -2 1 -3 q-1 -1 -3 -1 q-28 3 -73 3 l0 -9 q-2 -13 -14 -22 q-3 -3 -4 -2 q-2 1 -2 5 l1 42 l1 38 l-1 34 l20 -12 l44 1 Z" /><glyph glyph-name="" unicode="&#x5524;" d="M138 215 l15 -15 q2 -1 0 -2 q-2 -2 -5 -7 q-4 -4 -6 -6 l32 1 l9 8 l20 -14 q2 -1 -1 -3 l-9 -5 q-13 -11 -39 -30 l35 1 l7 11 l21 -13 q2 0 0 -2 l-6 -8 l-1 -65 l10 0 l12 14 l17 -15 q2 -2 0 -3 l-75 -2 q9 -43 70 -75 q2 0 1 -2 q0 -1 -2 -1 q-10 3 -32 -12 q-32 26 -40 90 l-6 0 q-5 -58 -107 -93 q-3 -1 -4 1 q0 1 2 3 q87 35 90 89 l-24 0 q-20 0 -31 -3 l-8 7 l26 0 l1 59 q1 7 0 20 q0 4 0 5 q0 3 2 1 l15 -8 l21 1 q16 23 25 39 l-35 -1 q-11 -12 -39 -38 q-3 -1 -2 2 q27 33 39 69 q0 3 2 2 ZM73 192 l19 -11 q2 -1 0 -3 l-5 -8 l-1 -96 l1 -3 q1 -1 0 -1 q-5 0 -11 0 q-14 -1 -36 -2 l0 -15 q0 -14 -12 -28 q-5 -2 -5 1 l1 48 l0 89 q0 5 -1 17 q0 7 0 9 q0 2 2 0 l16 -9 l23 1 l9 11 ZM40 175 l0 -103 l23 2 l1 102 l-24 -1 ZM127 136 l0 -71 l20 0 q3 17 2 38 l0 33 l-22 0 ZM189 138 l-21 -1 l0 -43 q0 -16 -2 -29 l21 1 l2 72 Z" /><glyph glyph-name="" unicode="&#x5566;" d="M55 193 l19 -13 q0 0 0 -2 l-6 -7 l-1 -96 l2 -3 q1 -2 -1 -2 q-6 0 -37 -1 l0 -17 q-1 -16 -11 -28 q-4 -3 -5 1 l1 47 l1 91 q0 5 -1 17 q0 6 0 8 q0 3 2 1 l15 -8 l14 1 l8 11 ZM196 137 l23 -10 q2 -1 0 -3 l-3 -7 l-10 -123 l14 0 l13 15 l17 -17 q2 -2 -1 -3 l-93 -2 q-5 0 -13 -1 q-9 0 -13 -1 l-7 8 l30 1 l-2 103 q0 9 -1 24 q-1 8 -1 11 q0 2 2 1 l20 -8 q2 -1 0 -2 l-2 -8 l-2 -121 l21 0 l5 107 q1 16 1 35 q0 3 2 1 ZM78 149 q-4 0 -4 3 q0 3 4 3 l19 1 l0 6 q1 15 -1 38 q0 8 0 11 q-1 2 0 3 q1 0 3 -1 l21 -10 q2 -1 2 -1 q0 0 -2 -2 l-3 -8 l-1 -36 l2 0 l8 10 l13 -11 q1 -3 -1 -3 l-22 -1 l0 -45 q5 3 15 9 q7 3 10 5 q2 1 1 -3 q-1 -1 -3 -3 q-12 -10 -23 -21 l-1 -34 l0 -43 q1 -30 -25 -45 q-2 -1 -3 -1 q-1 1 0 3 q0 13 -7 21 q-1 1 -1 2 q0 1 2 1 q19 -3 16 9 l0 69 q-4 -3 -9 -9 q-4 -5 -6 -6 q-1 -1 -1 -1 q-1 0 -2 1 l-8 23 q-1 1 0 1 q-1 0 1 1 q10 3 25 11 l0 54 l-19 -1 ZM142 155 q-3 0 -4 3 q1 3 4 3 l30 1 l1 49 l25 -6 q3 0 1 -4 q-3 -6 -6 -39 l14 1 l11 12 l15 -14 q1 -2 -1 -3 l-90 -3 ZM32 176 l-1 -102 l17 1 l0 102 l-16 -1 Z" /><glyph glyph-name="" unicode="&#x558a;" d="M87 175 q0 2 2 1 l21 -14 l55 1 q0 8 -1 24 q0 17 -1 25 l24 -11 q2 -1 0 -3 l-5 -5 q0 -15 1 -29 l28 0 l12 14 l17 -15 q1 -2 -2 -3 l-55 -2 q2 -41 9 -73 q9 19 18 41 l18 -14 q3 -1 0 -4 q-1 -1 -2 -3 q-2 -2 -3 -3 q-11 -25 -23 -43 q12 -30 27 -42 q5 -5 10 1 l8 9 q1 1 3 1 q1 -1 0 -3 q-10 -14 -2 -29 q5 -13 -1 -19 q-5 -5 -17 3 q-30 23 -43 59 q-25 -32 -83 -68 q-3 0 -2 3 q53 37 78 85 q-10 35 -13 99 l-58 -1 l0 -48 q-1 -50 -15 -74 q-15 -29 -58 -65 q-2 -1 -3 1 q-1 2 1 3 q34 31 46 62 q11 30 11 86 l0 22 l-2 31 ZM60 191 l18 -12 q2 0 0 -2 l-5 -7 l-1 -96 l2 -3 q0 -1 -1 -1 q-7 0 -12 0 q-2 0 -28 -2 l0 -16 q-1 -15 -11 -28 q-5 -3 -6 2 l2 46 l0 90 q0 5 -1 18 q0 6 0 8 q0 1 2 1 l15 -9 l17 1 l9 10 ZM147 103 l16 -10 q2 -1 0 -2 l-4 -7 l-1 -37 l1 -3 q0 -2 -1 -2 q-6 0 -35 -1 l0 -1 q0 -9 -9 -20 q-2 -2 -3 -1 q-1 0 -2 3 l2 52 q0 17 0 26 q0 3 2 1 l11 -8 l16 1 l7 9 ZM33 174 l0 -101 l19 2 l1 101 l-20 -2 ZM124 88 l-1 -41 l17 1 l0 41 l-16 -1 ZM113 121 q-4 2 0 5 l26 1 l9 11 l13 -12 q1 -3 -1 -3 l-47 -2 ZM197 198 q19 -4 21 -10 q-1 -7 -7 -13 q-4 -3 -6 2 q-1 3 -4 8 q-4 8 -5 12 q-1 1 1 1 Z" /><glyph glyph-name="" unicode="&#x5668;" d="M135 130 q3 -1 -1 -6 q-1 -1 -4 -4 q-2 -3 -4 -5 l87 1 l15 15 l16 -16 q1 -2 -1 -2 l-88 -2 q9 -22 94 -35 q1 0 2 -1 q-1 -2 -2 -2 q-12 -1 -28 -21 q-45 19 -69 59 l-31 -1 q-27 -30 -65 -54 l10 -5 l33 0 l9 11 l18 -11 q2 0 0 -2 l-6 -8 l1 -40 l1 -3 q0 -2 -1 -2 q-11 2 -55 -1 l0 -1 q-1 -11 -13 -24 q-3 -2 -4 -2 q-1 0 -1 3 l1 30 l0 33 q0 9 0 17 q-21 -13 -45 -25 q-2 -1 -2 0 q-1 2 0 3 q54 29 92 81 l-38 -1 q-23 -1 -31 -4 l-8 8 l80 2 q11 16 16 28 l22 -13 ZM193 63 l19 -11 q2 0 0 -2 l-4 -7 l0 -40 l1 -3 q1 -1 0 -1 q-21 0 -58 -1 l0 -3 q-1 -14 -12 -25 q-3 -2 -4 -2 q-2 1 -2 3 l1 33 l1 31 q0 6 -1 19 q0 6 0 8 q0 3 2 1 l16 -10 l32 1 l9 9 ZM104 208 l18 -11 q2 -1 0 -3 l-6 -7 l1 -34 l1 -3 q1 0 0 -1 q-20 0 -59 -2 q-1 -11 -11 -22 q-6 -3 -7 2 l2 25 l0 28 q1 13 -1 26 q0 1 3 1 l15 -10 l35 1 l9 10 ZM200 210 l19 -11 q2 -1 0 -3 l-5 -7 l0 -30 l1 -3 q1 0 0 -1 q-23 0 -62 -2 q-1 -9 -12 -18 q-6 -3 -6 1 l1 25 l0 21 q0 17 0 26 q0 2 2 1 l16 -10 l37 1 l9 10 ZM100 47 l-35 -1 l1 -46 l34 1 l0 46 ZM185 49 l-34 -1 l0 -45 l35 1 l-1 45 ZM96 194 l-37 -1 l0 -41 l38 2 l-1 40 ZM192 196 l-39 -1 l0 -37 l40 2 l-1 36 ZM171 145 q26 -6 25 -12 q-1 -9 -9 -13 q-4 -2 -6 2 q-2 16 -11 22 q-1 2 1 1 Z" /><glyph glyph-name="" unicode="&#x56de;" d="M204 204 l22 -12 q3 -1 1 -4 l-7 -10 l1 -100 l2 -52 q1 -28 -21 -47 q-4 -3 -6 -2 q-3 0 -2 4 q-2 16 -5 27 l-132 -1 q-1 -15 -15 -30 q-6 -5 -7 1 l2 179 q1 27 -1 44 q0 1 2 1 l22 -15 l134 1 l10 16 ZM58 180 l-1 -166 l139 1 l-1 166 l-137 -1 ZM168 61 q-28 4 -64 2 l0 -1 q-4 -17 -15 -24 q-3 0 -4 3 l1 108 q0 3 3 2 l15 -11 l36 1 l11 13 l22 -13 q2 -1 0 -3 l-5 -8 l0 -58 l2 -7 q1 -3 0 -3 q0 -1 -2 -1 ZM104 134 l0 -65 l38 1 l-1 65 l-37 -1 Z" /><glyph glyph-name="" unicode="&#x56e0;" d="M202 208 l23 -12 q3 0 0 -4 l-7 -9 l2 -112 l2 -58 q1 -23 -22 -42 q-4 -2 -5 0 q-2 1 -2 5 q-2 15 -5 25 l-130 -1 q-1 -13 -13 -28 q-7 -5 -8 1 l2 190 q0 33 -1 43 q-1 2 1 1 l22 -16 l131 2 l10 15 ZM60 185 l-2 -178 l137 1 l-2 178 l-133 -1 ZM114 178 l26 -8 q3 -1 0 -4 l-3 -4 l-1 -34 q0 -1 0 -2 l23 0 l11 12 l15 -14 q2 -2 0 -3 l-49 0 q-1 -19 -6 -34 q40 -15 47 -24 q4 -9 -7 -23 q-9 -7 -12 4 q-7 22 -29 40 q-11 -33 -66 -67 q-4 1 -2 2 q33 26 42 46 q12 20 12 56 l-14 0 q-3 0 -9 -1 q-14 0 -18 -2 l-6 7 l47 1 l0 6 l0 16 l-1 30 Z" /><glyph glyph-name="" unicode="&#x5728;" d="M115 213 l24 -15 q2 -2 0 -4 q-7 -16 -18 -32 l85 1 l16 16 l19 -18 q1 -1 1 -2 q0 -1 -2 -1 l-122 -2 q-18 -27 -37 -53 l3 -2 q3 -1 3 -6 l-1 -100 q-2 -14 -14 -26 q-5 -5 -7 0 l2 59 l0 58 q-29 -35 -59 -62 q-2 -1 -3 -1 q-1 1 0 3 q45 47 86 130 l-39 -1 q-18 0 -28 -2 l-7 8 l76 1 q14 28 19 49 q2 3 3 2 ZM109 72 q-3 0 -3 3 q-1 3 2 3 l41 2 l0 16 l-2 44 l29 -8 q1 0 2 -1 q-1 -1 -2 -2 q-3 -3 -4 -10 l-1 -39 l20 1 l13 14 l16 -16 q2 -2 0 -3 l-49 -2 l0 -79 l39 1 l15 15 l16 -17 q2 -2 0 -2 l-116 -3 q-14 -1 -27 -3 l-8 8 l59 1 l0 79 l-40 -2 Z" /><glyph glyph-name="" unicode="&#x5747;" d="M144 211 l23 -12 q0 0 0 -1 q1 -1 0 -2 l-4 -6 q-2 -3 -8 -12 q-6 -10 -10 -15 l58 1 l11 13 l23 -15 q2 -1 0 -3 l-8 -11 l-2 -82 l1 -33 q-2 -41 -41 -63 q-3 -2 -4 1 q2 18 -10 23 q-2 1 -1 2 q0 1 2 1 q32 -2 30 36 l2 125 l-65 -1 q-30 -44 -52 -66 q-2 -1 -2 2 q38 50 57 118 ZM19 133 q-3 0 -3 2 q0 2 2 3 l35 2 l0 38 l-1 33 l27 -10 l-4 -8 l-2 -52 l8 0 l11 12 l15 -13 q1 -1 1 -1 q0 -1 -2 -2 l-33 -1 l-3 -83 l37 16 q3 1 2 -2 l-73 -56 q-2 -3 -6 -1 l-18 16 q0 0 -1 1 q-1 2 1 2 q13 4 35 13 l5 3 l1 90 l-34 -2 ZM195 75 q3 1 2 -2 l-48 -28 q-17 -9 -27 -18 q-1 -1 -3 0 l-16 19 q0 2 1 2 q17 3 34 9 l57 18 ZM134 131 q34 -13 38 -24 q-1 -11 -11 -17 q-9 -5 -10 4 q-4 26 -18 35 q0 2 1 2 Z" /><glyph glyph-name="" unicode="&#x5802;" d="M186 72 q-44 2 -98 1 q-1 -3 -11 -11 q-7 -4 -7 1 l1 25 l0 21 l0 24 l21 -10 l66 2 l10 12 l23 -11 q0 0 0 -1 q1 -1 0 -1 l-4 -8 l-1 -37 l3 -4 q1 -3 -3 -3 ZM202 155 l12 9 l26 -26 q3 -3 -3 -5 q-18 0 -39 -11 q-2 -1 -2 2 l8 26 l-146 -5 q-6 -29 -30 -44 q-5 -2 -5 1 q-6 12 0 17 q18 17 19 38 q0 4 5 2 q6 -4 10 -9 l59 2 l-1 62 l29 -7 q2 -1 0 -3 l-2 -6 l-3 -45 l6 0 q19 27 31 49 l22 -14 q1 -1 0 -2 q0 -1 0 -1 q-25 -15 -47 -32 l51 2 ZM83 29 q-18 -1 -28 -3 l-7 8 l65 1 l0 36 l30 -7 q3 -1 1 -4 q-5 -5 -6 -10 l0 -14 l35 1 l14 14 l19 -16 q2 -3 -1 -3 l-67 -2 l0 -42 l69 0 l15 16 l20 -18 q1 -2 -1 -3 l-191 -3 q-10 0 -22 -2 q-3 -1 -5 -1 l-7 9 l98 1 l0 43 l-31 -1 ZM90 118 l-1 -39 l70 1 l1 40 l-70 -2 ZM71 196 q36 -16 33 -26 q-3 -10 -14 -15 q-10 -1 -10 6 q0 21 -10 33 q-2 3 1 2 Z" /><glyph glyph-name="" unicode="&#x5883;" d="M190 51 q1 -1 1 -3 l-4 -6 l-8 -34 q-4 -10 7 -10 q24 -2 38 3 q6 1 12 17 q1 2 2 2 q1 0 1 -2 q-3 -14 4 -19 q14 -15 -8 -23 q-19 -4 -49 1 q-24 4 -21 35 l2 31 l1 16 q-10 0 -23 0 l15 -7 q2 -1 0 -3 l-5 -4 q-29 -45 -110 -81 q-2 -1 -2 1 q-1 2 1 3 q62 29 94 91 l-9 0 q-5 -9 -11 -13 q-4 -3 -5 1 l0 52 q0 15 -1 19 q0 3 2 1 l14 -7 l64 1 l8 11 l20 -12 q2 0 0 -2 l-5 -7 l0 -39 l2 -3 q1 -3 -2 -3 q-11 1 -43 1 l18 -8 ZM12 135 q-2 -1 -3 1 q-1 3 1 4 l33 1 l0 41 l-1 33 l27 -11 l-4 -8 l-2 -54 l8 1 l11 12 l15 -13 q2 -1 -1 -3 l-33 -2 l-3 -75 l36 18 q3 -1 2 -3 l-65 -55 q-4 -4 -7 0 l-17 14 q-1 2 0 3 q12 3 32 13 l1 1 l1 83 l-31 -1 ZM193 109 l-64 -1 l0 -19 l56 2 q3 0 3 -2 q-1 -2 -3 -2 l-56 -2 l0 -22 l63 2 l1 44 ZM183 174 l20 -11 q2 -2 0 -5 l-16 -23 l31 1 l12 12 l15 -14 q2 -1 0 -3 l-123 -2 q-18 0 -27 -3 l-7 7 l42 1 q0 7 -1 18 q0 7 0 9 q-1 3 1 2 l16 -7 q1 -1 1 -3 l0 -19 l23 1 q12 28 13 39 ZM106 173 q-3 0 -3 3 q-1 2 2 2 l45 1 l0 34 l25 -8 q3 -1 0 -4 l-2 -7 l0 -14 l27 0 l11 13 l16 -15 q1 -2 -1 -2 l-120 -3 Z" /><glyph glyph-name="" unicode="&#x590f;" d="M53 188 q-17 0 -28 -3 l-7 9 l180 2 l16 15 l18 -17 q1 -1 -1 -3 l-119 -2 l13 -7 q2 -2 0 -4 q-4 -1 -20 -8 q-9 -4 -13 -6 l70 2 l10 11 l20 -12 q2 0 0 -2 l-5 -8 l0 -46 q0 -15 -15 -29 q-6 -4 -7 2 q-1 1 -3 6 q-2 5 -3 5 l-75 -1 q-4 -10 -13 -16 q-4 -4 -6 0 l0 93 q0 3 2 2 l17 -7 q9 9 19 25 l-50 -1 ZM89 45 q10 -11 25 -20 q19 17 35 36 l-55 -2 q-31 -29 -47 -41 q-5 -1 -2 2 q25 28 46 68 l20 -10 q2 -1 0 -2 q-5 -6 -11 -11 l51 2 l11 10 l21 -11 q2 -2 -1 -4 l-8 -8 q-28 -26 -43 -38 q41 -18 116 -23 q2 0 2 -1 q0 -1 -1 -2 q-22 -3 -33 -25 q-67 16 -97 42 q-40 -27 -109 -43 q-3 0 -1 3 q60 21 98 51 q-10 12 -18 25 l1 2 ZM84 159 l0 -17 l65 2 q2 -1 2 -2 q0 -2 -2 -3 l-65 -2 l0 -17 l66 2 q2 -1 2 -2 q0 -2 -2 -3 l-66 -2 l0 -18 l79 2 l1 62 l-80 -2 Z" /><glyph glyph-name="" unicode="&#x591a;" d="M125 63 q11 -6 25 -16 q22 20 37 39 l-42 -2 q-43 -32 -95 -60 q-1 -1 -2 0 q-1 1 0 3 q64 45 106 96 l21 -13 q2 -1 0 -3 q-1 -1 -3 -3 q-6 -5 -18 -14 l34 1 l12 10 l24 -16 q2 -1 -1 -4 l-10 -6 q-22 -22 -47 -40 q17 -12 18 -17 q2 -8 -11 -23 q-7 -4 -11 6 q-2 4 -6 11 q-5 8 -7 11 q-47 -31 -125 -58 q-3 -1 -3 0 q-1 3 2 4 q68 27 116 69 q-9 15 -16 23 q-3 3 2 2 ZM100 155 q4 -2 13 -7 q10 -4 14 -7 q20 18 38 39 l-49 -1 q-29 -24 -64 -49 q-3 -1 -1 2 q46 45 66 82 l21 -13 q2 -1 0 -3 q-7 -6 -14 -13 l43 1 l12 9 l21 -16 q2 -1 -1 -3 l-8 -5 q-25 -22 -48 -39 q3 -3 3 -4 q1 -10 -11 -20 q-4 -3 -8 5 q-1 3 -3 6 q-26 -19 -96 -48 q-2 -1 -3 0 q0 1 1 3 q47 22 89 58 q-12 16 -16 21 q-2 3 1 2 Z" /><glyph glyph-name="" unicode="&#x5927;" d="M62 112 q-18 0 -28 -2 l-8 8 l87 2 q3 37 1 91 l29 -7 q2 -1 2 -1 q0 -1 -2 -2 l-6 -7 q0 -42 -3 -74 l66 2 l16 16 l18 -19 q2 -3 -1 -3 l-89 -2 q10 -85 98 -123 q2 -1 2 -2 q-1 -2 -3 -2 q-19 -1 -32 -16 q-65 34 -71 143 l-4 0 q2 -112 -129 -144 q-2 -1 -2 0 q0 2 1 3 q108 34 109 140 l-51 -1 Z" /><glyph glyph-name="" unicode="&#x597d;" d="M102 164 l22 -11 q2 -1 0 -3 l-5 -8 q-8 -61 -30 -96 q22 -9 34 -21 q6 -15 -5 -30 q-7 -5 -10 4 q-8 15 -27 34 q-22 -31 -76 -68 q-2 -1 -3 1 q0 2 1 3 q47 36 66 74 q-14 11 -29 16 l12 85 l-2 0 q-13 0 -24 -2 l-9 7 l36 1 l4 27 q1 9 2 25 q1 9 1 13 l27 -11 q2 -1 0 -3 l-4 -5 l-10 -45 l21 0 l8 13 ZM150 95 q-17 -1 -26 -4 l-9 8 l52 2 q0 26 -2 42 q0 2 2 1 l11 -4 l29 50 l-46 -2 q-16 -1 -24 -4 l-9 7 l79 5 l11 10 l20 -17 q2 -1 2 -3 q-1 -1 -3 -2 q-10 -5 -54 -46 l6 -2 q3 0 2 -2 q0 -10 0 -32 l28 1 l12 16 l19 -17 q2 -2 0 -3 l-59 -2 q1 -46 -1 -87 q-3 -23 -32 -41 q-3 0 -3 3 q0 15 -9 19 q-2 1 -2 2 q1 2 3 2 q22 -3 19 13 q1 20 1 87 l-17 0 ZM53 61 q9 -3 20 -8 q17 36 21 93 l-23 -1 l-18 -84 Z" /><glyph glyph-name="" unicode="&#x59dc;" d="M159 214 l25 -13 q2 0 0 -2 l-5 -5 l-12 -19 l34 1 l14 14 l19 -17 q2 -1 0 -2 l-93 -3 l-1 -25 l40 1 l12 13 l16 -15 q2 -1 -1 -3 l-67 -2 l0 -27 l72 1 l14 14 l19 -16 q2 -2 0 -3 l-134 -2 l19 -11 q3 -1 1 -4 l-8 -6 l-13 -15 l91 1 l15 16 l20 -18 q2 -1 0 -3 l-60 -1 l14 -7 q3 -3 -1 -5 q-19 -19 -42 -34 q57 -11 63 -19 q6 -11 3 -23 q-3 -10 -9 -4 q-24 20 -73 36 q-46 -25 -121 -42 q-2 0 -2 1 q0 1 1 2 q63 15 104 45 q-31 10 -47 12 l18 36 l0 1 l-28 -1 q-3 0 -8 -1 q-14 0 -19 -2 l-7 9 l65 0 q10 22 16 37 l-56 -1 q-18 0 -28 -3 l-7 8 l103 2 l0 26 l-31 0 q-14 -1 -27 -3 l-9 8 l67 1 l0 26 l-58 -2 q-11 0 -26 -3 q-1 0 -2 0 l-8 9 l61 1 l0 22 q-1 8 -1 12 q-1 2 2 1 l20 -8 q2 0 2 -3 l-1 -24 l43 1 l12 40 ZM76 29 q6 -1 19 -3 q20 -3 30 -4 q24 20 41 41 l-61 -1 l-29 -33 Z" /><glyph glyph-name="" unicode="&#x5b89;" d="M59 96 q-14 -1 -30 -3 q1 1 -3 0 l-9 9 l74 2 l2 4 q12 24 20 47 l28 -13 q3 0 1 -3 l-7 -6 l-20 -29 l89 2 l17 18 l20 -19 q1 -1 1 -2 q0 -1 -2 -1 l-67 -2 l19 -15 q2 -2 2 -3 q0 -1 -3 -2 q-26 -28 -50 -46 q59 -16 69 -27 q9 -12 5 -26 q-2 -10 -10 -4 q-33 25 -79 46 q-37 -28 -117 -58 q-2 0 -3 1 q0 2 1 3 q69 30 103 60 q-27 12 -48 18 l25 50 l-28 -1 ZM205 176 l12 9 l25 -26 q3 -7 -5 -8 q-19 2 -36 -8 q-2 -1 -3 2 l8 26 l-144 -5 q-9 -32 -33 -45 q-3 -2 -5 1 q-3 13 1 17 q20 19 21 39 q0 3 1 3 q1 0 4 -1 q4 -1 10 -9 l57 2 l-1 41 q0 2 2 2 l27 -9 q3 0 1 -3 q-3 -3 -3 -12 l-1 -18 l62 2 ZM78 50 q6 -1 18 -5 q16 -4 25 -6 q28 30 47 60 l-57 -1 l-33 -48 Z" /><glyph glyph-name="" unicode="&#x5b9a;" d="M88 118 q-16 -1 -28 -3 l-7 7 l122 5 l15 15 l18 -17 q3 -2 -1 -2 l-68 -3 l-2 -114 q34 -3 112 6 q2 1 2 -1 q1 -2 -1 -3 q-17 -3 -27 -29 q-23 -1 -54 0 q-32 2 -45 5 q-28 4 -50 55 q-8 -37 -65 -74 q-3 0 -2 3 q54 34 56 119 l20 -9 q2 0 0 -4 l-2 -4 q-2 -14 -5 -26 q16 -28 40 -35 l0 110 l-28 -1 ZM36 122 q-11 -1 -11 19 q22 13 26 42 q0 2 2 2 q1 0 2 -2 q0 -5 1 -10 l58 2 l-1 35 q0 3 2 2 l28 -8 q3 0 1 -4 q-4 -3 -4 -11 l0 -13 l60 2 l12 11 l26 -22 q3 -3 -2 -5 q-21 -5 -39 -15 q-2 -1 -3 0 q-1 1 0 2 l7 24 l-145 -6 q1 -31 -20 -45 ZM200 95 l10 -18 q1 -2 1 -2 q-1 -1 -2 -1 q-12 -2 -40 -6 q-13 -2 -20 -3 q-3 1 -1 3 q32 11 52 27 Z" /><glyph glyph-name="" unicode="&#x5b9c;" d="M98 129 l58 3 l11 13 l23 -14 q2 -1 -1 -4 l-7 -9 l1 -128 l26 0 l15 15 l20 -18 q1 -2 -1 -2 l-194 -4 q-18 -1 -27 -4 l-7 9 l62 1 l1 118 l-1 34 l21 -10 ZM99 124 l-1 -37 l42 4 q3 -1 3 -2 q0 -1 -2 -3 l-43 -4 l0 -37 l44 5 q3 0 4 -2 q0 -2 -3 -3 l-45 -5 l0 -52 l59 1 l0 138 l-58 -3 ZM205 173 l11 9 l26 -25 q2 -2 1 -4 q-1 -1 -4 -1 q-16 -2 -40 -14 q-2 -1 -2 2 l9 28 l-145 -6 q-7 -32 -31 -46 q-5 -2 -5 1 q-5 13 0 17 q19 18 21 39 q-1 2 0 3 q1 0 4 -1 q4 -2 10 -8 l57 2 l0 43 l29 -7 q1 0 2 -1 q0 0 -1 -2 l-3 -6 l-1 -26 l62 3 Z" /><glyph glyph-name="" unicode="&#x5b9e;" d="M134 158 l30 -11 q3 0 1 -4 l-6 -8 l-4 -43 q-2 -14 -5 -26 l49 2 l18 18 l20 -20 q2 -3 -1 -3 l-88 -3 q-17 -64 -134 -94 q-2 0 -3 1 q0 2 2 3 q92 28 112 89 l-71 -2 q-14 -1 -27 -3 l-8 8 l108 3 q4 17 5 34 l2 21 q1 12 0 31 q0 5 0 7 ZM205 175 l11 9 l26 -25 q3 -5 -4 -5 q-16 -1 -39 -14 q-2 0 -2 2 l9 28 l-143 -4 q-7 -31 -32 -46 q-3 -2 -5 1 q-5 13 1 17 q19 18 21 40 q-1 2 0 2 q2 1 4 -1 q4 -1 10 -8 l54 2 l1 41 l30 -8 q1 0 2 -1 q0 0 -1 -2 l-3 -6 l-1 -24 l61 2 ZM160 37 q49 -14 62 -29 q4 -11 -5 -26 q-7 -9 -12 1 q-19 34 -46 52 q-2 2 1 2 ZM54 113 q36 -8 41 -19 q3 -7 -6 -19 q-8 -6 -11 2 q-11 24 -25 33 q-1 1 -1 2 q0 1 2 1 ZM74 152 q35 -8 38 -16 q1 -10 -8 -20 q-8 -5 -10 3 q-7 22 -21 30 q-2 1 -1 2 q0 1 2 1 Z" /><glyph glyph-name="" unicode="&#x5ba2;" d="M120 168 q2 -1 0 -3 q1 0 0 -1 l-6 -5 q-4 -6 -10 -12 l64 3 l12 11 l25 -16 q2 -3 -1 -4 l-11 -7 q-21 -18 -45 -35 q31 -12 104 -24 q3 -2 0 -4 q-16 0 -30 -22 q-35 11 -49 18 l20 -12 q1 0 2 -1 q0 0 -1 -2 l-6 -7 l1 -47 l2 -6 q1 -3 0 -3 q0 -1 -3 -1 q-35 3 -90 3 q-6 -16 -18 -24 q-2 0 -3 3 l-1 88 q-33 -16 -69 -31 q-2 0 -3 1 q0 2 1 3 q64 29 114 70 q-15 13 -27 32 q-27 -30 -50 -46 q-3 -2 -2 2 q38 42 58 89 l-34 -1 q-6 -29 -30 -44 q-4 -2 -6 1 q-5 12 1 17 q22 17 19 38 q0 2 1 2 q2 1 4 -1 q4 -1 10 -8 l54 2 l1 30 l29 -7 q2 -1 0 -3 l-3 -6 l0 -13 l62 2 l11 9 l26 -26 q2 -2 1 -4 q-1 -1 -4 -1 q-18 0 -39 -11 q-2 -1 -2 1 l8 27 l-104 -4 l17 -10 ZM98 48 l0 -51 l64 0 l-1 53 l-63 -2 ZM160 56 l10 12 q-22 9 -37 21 q-23 -15 -50 -27 l14 -8 l63 2 ZM165 144 l-65 -3 q-3 -3 -6 -6 q10 -14 33 -27 q21 18 38 36 Z" /><glyph glyph-name="" unicode="&#x5ba3;" d="M87 25 q-2 -7 -12 -14 q-3 -2 -5 -1 q-1 0 -1 3 l0 81 q0 4 -1 13 q0 5 0 7 q-1 3 2 2 l17 -8 l71 2 l8 11 l22 -11 q1 -1 1 -3 l-5 -8 l1 -59 q-1 -9 -11 -25 q-6 -6 -9 -1 q-1 1 -2 4 q-5 8 -6 10 l-70 -3 ZM159 105 l-71 -2 l0 -33 l62 3 q2 0 2 -2 q0 -3 -2 -3 l-62 -3 l0 -35 l71 3 l0 72 ZM202 177 l13 8 l25 -26 q3 -6 -6 -7 q-18 2 -35 -8 q-3 -1 -3 2 l8 26 l-144 -5 q-9 -32 -33 -45 q-3 -3 -5 1 q-5 13 1 17 q19 18 21 39 q0 3 1 3 q1 0 4 -1 q1 -1 3 -2 q4 -4 7 -7 l55 2 l-1 40 q0 3 2 2 l28 -8 q3 -1 1 -4 q-3 -3 -4 -11 l-1 -18 l63 2 ZM55 -12 q-18 -1 -28 -3 l-7 8 l189 3 l14 14 l17 -16 q1 -1 1 -2 q0 -1 -2 -1 l-184 -3 ZM98 135 q-10 -1 -21 -2 q-4 -1 -6 -1 l-9 6 l98 5 l12 11 l15 -13 q0 0 0 -1 q2 -2 -1 -2 l-88 -3 Z" /><glyph glyph-name="" unicode="&#x5ba4;" d="M87 143 q-19 -1 -27 -4 l-8 8 l121 4 l13 13 l17 -15 q2 -2 0 -3 q0 1 -1 0 l-82 -2 l17 -13 q3 -3 -1 -4 l-9 -4 q-32 -21 -49 -31 q3 0 8 1 l87 2 q-8 13 -20 25 q0 2 2 1 q1 -1 4 -2 q39 -17 46 -30 q3 -10 -13 -21 q-4 -3 -6 2 q-1 2 -3 6 q-2 6 -8 15 l-60 -10 l28 -7 q2 -1 2 -2 q0 -2 -2 -3 q-5 -7 -5 -19 l0 -14 l39 1 l13 15 l18 -16 q2 -3 -1 -3 l-69 -2 l-1 -43 l72 2 l14 14 l18 -16 q1 -2 -1 -3 l-193 -4 q-18 -1 -27 -4 l-8 9 l102 2 l0 42 l-35 -1 q-14 -1 -27 -3 l-8 8 l70 2 l0 9 q0 27 -1 35 l-23 -3 q-3 -1 -10 -3 q-15 -4 -20 -6 q-4 -2 -5 1 l-10 21 q0 3 2 2 q9 0 23 0 q26 26 43 51 l-26 0 ZM207 184 l10 10 l25 -19 q2 -4 -3 -6 q-18 -1 -33 -12 q-3 0 -2 2 l4 21 l-152 -5 q-8 -26 -30 -39 q-4 -2 -6 1 q-3 13 1 17 q18 13 19 33 q0 4 5 2 q6 -4 10 -9 l59 2 l1 33 l29 -7 q2 0 0 -3 l-3 -6 l-1 -16 l67 1 Z" /><glyph glyph-name="" unicode="&#x5bb6;" d="M97 134 q-10 0 -25 -3 q-1 0 -2 0 l-7 6 l98 5 l13 13 l17 -15 q2 -2 0 -3 l-68 -2 l16 -10 q2 -2 0 -2 l-5 -2 q-2 -1 -6 -4 q-6 -4 -8 -5 q15 -14 24 -32 q34 24 51 43 l19 -17 q2 -2 0 -3 q0 1 -1 0 q-15 -5 -37 -14 q6 -39 72 -72 q2 -1 1 -3 q0 -1 -2 -1 q-15 -1 -30 -18 q-44 41 -44 93 q-4 -2 -14 -5 q-9 -4 -14 -6 q13 -28 7 -70 q-6 -30 -38 -40 q-1 -1 -2 0 q0 0 0 3 q1 15 -10 21 q-1 1 -1 2 q0 1 2 1 q23 -4 24 11 q6 24 5 44 q-42 -36 -121 -71 q-2 -1 -3 0 q0 2 1 3 q64 33 121 94 q-1 5 -3 9 q-43 -35 -105 -60 q-3 0 -1 2 q59 34 98 79 q0 1 -1 2 q-1 2 -2 2 q-38 -22 -87 -44 q-2 -1 -3 1 q-1 1 1 2 q53 30 88 66 l-18 0 ZM37 121 q-4 -4 -6 -1 q-8 12 -6 22 q22 13 24 42 q3 3 4 0 l6 -11 l56 2 l-1 35 q0 3 2 2 l28 -8 q2 -2 0 -4 q-3 -6 -3 -11 l0 -13 l55 1 l12 11 l26 -21 q3 -3 -1 -5 q-15 -1 -39 -13 q-2 -1 -3 -1 q-1 1 0 3 l7 22 l-139 -6 q0 -27 -22 -46 Z" /><glyph glyph-name="" unicode="&#x5bb9;" d="M158 61 l11 13 l23 -13 q2 -1 0 -3 l-5 -8 l1 -51 l2 -6 q2 -4 -3 -4 q-42 5 -94 3 l0 -6 q-3 -11 -16 -20 q-5 -2 -6 2 l1 46 l0 53 q0 5 3 3 l17 -10 l66 1 ZM120 148 l24 -11 q2 -1 2 -2 q0 0 -2 -2 l-3 -3 q25 -33 107 -59 q3 -1 0 -4 q-15 -2 -29 -20 q-53 29 -81 80 l-1 -1 q-57 -57 -129 -97 q-3 -1 -4 0 q0 1 2 3 q74 53 114 116 ZM92 54 l0 -56 l67 1 l0 56 l-67 -1 ZM203 184 l11 9 l26 -26 q2 -2 1 -4 q-1 -1 -4 -1 q-21 1 -37 -9 q-3 -1 -2 1 l6 24 l-141 -5 q-6 -29 -30 -44 q-4 -3 -6 1 q-5 14 0 20 q19 12 20 35 q0 4 5 1 q4 -1 10 -8 l53 2 l0 34 l29 -7 q3 -1 1 -3 l-3 -6 l-1 -17 l62 3 ZM99 170 l15 -17 q3 -3 -1 -4 q-35 -26 -93 -55 q-2 -1 -2 0 q0 2 1 3 q48 30 80 73 ZM140 162 q50 -9 68 -19 q7 -6 1 -22 q-4 -7 -12 0 q-27 27 -58 38 q-2 3 1 3 Z" /><glyph glyph-name="" unicode="&#x5bd2;" d="M87 144 q-10 0 -22 -2 q-3 -1 -5 -1 l-8 7 l43 2 l-1 27 l24 -9 l-4 -9 l0 -9 l32 1 l-1 25 l25 -9 l-4 -9 l0 -6 l16 0 l12 13 l17 -15 q2 -2 -1 -2 l-44 -2 l-1 -21 l13 0 l11 11 l14 -13 q2 -2 -1 -2 l-37 -2 l0 -23 l44 1 l14 14 l17 -16 q2 -2 0 -2 l-82 -3 q17 -25 92 -42 q3 -1 0 -4 q-13 1 -27 -20 q-49 26 -68 66 l-56 -1 l14 -9 q2 -2 -1 -4 q-33 -30 -103 -61 q-5 -1 -2 2 q52 31 86 72 l-33 -1 q-19 -1 -29 -4 l-8 9 l73 1 l-1 24 q-8 -1 -18 -2 q-5 -1 -7 -1 l-7 7 l32 1 l0 21 l-8 0 ZM206 187 l11 9 l24 -19 q4 -3 -2 -6 q-16 2 -34 -10 q-3 0 -2 2 l5 19 l-145 -5 q-8 -26 -30 -39 q-5 -2 -5 2 q-3 12 0 16 q18 13 19 33 q0 4 5 2 q6 -4 10 -9 l55 2 l1 32 l29 -7 q2 -1 0 -4 l-3 -6 l0 -14 l62 2 ZM107 24 q53 -19 56 -31 q1 -14 -12 -24 q-9 -4 -11 5 q-16 28 -35 48 q-3 2 2 2 ZM111 66 q38 -9 42 -21 q2 -10 -9 -19 q-7 -2 -10 4 q-7 17 -24 33 q-1 2 -1 2 q1 1 2 1 ZM114 118 l-1 -23 l33 1 l0 23 l-32 -1 ZM146 144 l0 2 l-32 -1 l0 -21 l32 0 l0 20 Z" /><glyph glyph-name="" unicode="&#x5bf9;" d="M125 40 q-3 -10 -14 -21 q-6 -2 -8 4 q-9 22 -23 43 q-28 -44 -75 -89 q-2 -1 -2 0 q-1 2 0 4 q44 50 65 103 q-8 12 -24 34 q-10 12 -13 17 q-2 3 2 2 q13 -11 42 -36 q12 37 16 60 l-58 -3 q-3 0 -4 3 q-1 3 2 4 l60 3 l12 15 l23 -16 q2 -1 0 -4 l-9 -10 q-11 -37 -26 -66 q20 -20 32 -35 q5 -6 2 -12 ZM158 141 q-18 0 -28 -3 l-8 8 l61 1 l1 32 l-1 33 l30 -13 q2 -1 2 -1 q0 0 -2 -2 l-5 -9 l-1 -39 l13 0 l13 14 l16 -16 q2 -1 0 -2 l-42 -1 l-1 -86 l0 -39 q-2 -30 -34 -48 q-2 -1 -3 0 q-1 1 0 2 q1 16 -12 23 q-1 1 -1 2 q0 2 1 1 q27 -2 25 14 l1 130 l-25 -1 ZM129 114 q36 -15 42 -26 q2 -9 -8 -21 q-8 -4 -10 3 q-8 28 -25 42 q-2 2 1 2 Z" /><glyph glyph-name="" unicode="&#x5bfc;" d="M52 213 l22 -12 l98 2 l11 11 l20 -13 q3 -1 0 -4 l-5 -6 l-1 -20 l2 -3 q1 -2 -1 -2 q-3 0 -11 0 q-23 1 -38 0 l-80 -2 l-2 -15 q-2 -14 10 -14 q65 -8 118 2 q16 1 20 18 q1 1 2 2 q1 -1 1 -2 q-1 -9 10 -12 q18 -15 -7 -27 q-59 -13 -140 -2 q-33 4 -31 45 l1 18 q0 8 -1 23 q0 8 0 11 q0 3 2 2 ZM47 65 q-21 -2 -27 -4 l-9 9 l143 4 q0 20 0 30 q-1 2 1 1 l28 -11 q2 -1 0 -3 q-3 -3 -4 -8 l0 -9 l30 2 l16 16 l19 -18 q1 -1 1 -2 q0 -1 -2 -1 l-64 -2 l-1 -24 l1 -30 q0 -29 -34 -45 q-3 -2 -3 3 q0 19 -12 22 q-2 1 -1 3 q0 1 2 1 q26 -3 24 8 l0 49 q0 2 0 6 q-1 4 -1 6 l-107 -3 ZM173 197 l0 1 l-99 -3 l-2 -5 l-2 -20 l103 3 l0 24 ZM68 58 q36 -16 34 -28 q-2 -10 -16 -16 q-8 -1 -9 6 q-3 24 -11 36 q-1 2 2 2 Z" /><glyph glyph-name="" unicode="&#x5c06;" d="M72 212 l24 -11 q1 -1 1 -3 l-5 -8 l-2 -130 l2 -61 q-5 -18 -18 -31 q-2 -2 -4 -2 q-2 0 -2 3 l1 76 l1 56 q-24 -27 -42 -53 q-5 -7 -11 -6 q-5 2 -3 9 q7 17 4 26 q7 -8 52 32 l0 67 q1 11 0 28 q0 5 0 7 q0 3 2 1 ZM133 153 q-1 2 2 2 q23 -7 29 -14 q0 -4 -1 -6 q16 18 31 42 l-48 -2 q-18 -24 -43 -49 q-1 -1 -2 0 q-1 1 0 3 q27 33 40 83 q0 3 2 2 l21 -14 q2 -1 0 -3 q-1 -1 -2 -3 q-4 -5 -11 -14 l43 1 l11 11 l20 -13 q2 -3 -1 -5 l-8 -7 q-36 -50 -122 -94 q-1 -1 -2 1 q0 1 1 2 q36 24 58 46 q-1 1 -3 4 q-6 15 -15 27 ZM108 77 l70 2 l0 8 q-1 20 -1 29 l27 -8 q3 0 1 -2 q-2 -2 -3 -5 q-1 -2 -1 -2 l0 -19 l9 0 l14 15 l18 -17 q2 -1 -1 -3 l-40 -1 l1 -30 l1 -36 q-2 -25 -32 -39 q-3 -1 -2 2 q0 16 -9 19 q-1 1 -1 2 q0 1 1 1 q20 1 18 7 l0 73 l-70 -1 q-3 0 -3 3 q0 2 3 2 ZM124 68 q3 -2 7 -4 q28 -16 26 -24 q-2 -11 -14 -17 q-9 -2 -10 6 q-1 26 -10 37 q-1 2 1 2 ZM25 164 q29 -9 30 -20 q0 -11 -9 -16 q-6 -4 -9 3 q-1 21 -12 32 q-2 2 0 1 Z" /><glyph glyph-name="" unicode="&#x5c1d;" d="M152 37 q-1 2 1 2 q45 -21 51 -38 q3 -13 -13 -23 q-6 -4 -9 5 q-3 14 -10 26 q-66 -12 -108 -31 q-4 -1 -5 2 l-9 21 q0 2 2 2 q16 0 22 4 q13 12 34 61 l-47 -1 q-18 -1 -27 -4 l-8 9 l174 2 l16 17 l18 -18 q1 -2 -2 -3 l-115 -2 l18 -12 q1 -1 -1 -3 l-3 -3 q-10 -11 -40 -37 q-6 -5 -9 -8 l88 8 q-9 15 -18 24 ZM199 154 l12 10 l25 -24 q4 -7 -5 -8 q-15 0 -36 -13 q-4 -1 -2 2 l7 28 l-132 -5 q-8 -28 -30 -44 q-4 -2 -6 2 q-4 12 1 16 q17 18 19 37 q-1 2 0 3 q1 0 4 -1 q4 -1 11 -8 l49 2 l1 22 l-2 42 l30 -8 q3 0 1 -3 q-3 -3 -5 -10 l0 -42 l9 0 q22 33 30 54 l22 -16 q2 -1 2 -1 q0 -1 -2 -2 q-14 -6 -47 -34 l44 1 ZM105 108 q-10 -1 -22 -2 q-3 -1 -5 -1 l-7 7 l89 2 l13 15 l17 -15 q1 -3 -1 -4 l-84 -2 ZM69 201 q29 -14 30 -24 q-1 -11 -12 -15 q-8 -2 -11 6 q0 21 -9 31 q0 0 0 1 q-1 2 2 1 Z" /><glyph glyph-name="" unicode="&#x5c31;" d="M160 210 l26 -11 q4 -1 0 -5 l-3 -6 l-1 -56 l32 1 l12 13 l16 -15 q2 -1 0 -3 l-47 -2 l16 -8 q2 -1 0 -3 l-3 -6 l-11 -89 q-2 -13 8 -14 q9 -3 21 0 q9 2 14 14 q1 2 2 2 q1 0 1 -2 q-2 -12 6 -17 q11 -14 -9 -22 q-18 -5 -34 -2 q-24 5 -23 42 l6 90 l0 15 l-7 0 l0 -4 q3 -99 -98 -158 q-2 0 -3 1 q0 2 2 3 q48 35 62 65 q17 33 17 92 q-12 0 -19 -2 l-7 7 l26 1 l0 41 q0 19 -2 38 ZM97 14 q1 -24 -26 -37 q-3 0 -3 2 q0 12 -8 18 q-2 0 -2 1 q0 2 2 2 q17 -2 16 6 l0 80 q-9 0 -19 0 q-2 -8 -11 -16 q-3 -2 -4 -1 q-1 0 -1 2 l1 29 l0 22 q0 5 -1 17 q0 7 0 9 q0 2 2 0 l18 -8 l48 1 l9 10 l20 -13 q2 0 0 -2 l-6 -7 l0 -38 l1 -4 q1 0 0 -1 q-12 0 -35 0 l-1 -72 ZM58 135 l0 -44 l51 1 l0 44 l-51 -1 ZM76 212 l24 -8 q2 -2 0 -4 q-2 -3 -2 -11 l-1 -15 l22 0 l13 15 l17 -16 q1 -1 1 -2 q0 -1 -2 -1 l-95 -3 q-16 0 -28 -3 l-7 8 l56 1 l-1 37 q1 3 3 2 ZM66 57 q2 -1 0 -3 q-25 -39 -62 -75 q-4 -3 -2 1 q33 44 44 86 l20 -9 ZM105 63 q27 -9 34 -23 q-1 -9 -10 -17 q-7 -4 -9 3 q-1 3 -2 7 q-5 22 -14 28 q-1 3 1 2 ZM202 189 q27 -9 27 -19 q-1 -7 -10 -11 q-7 -4 -9 3 q-2 17 -9 25 q-2 1 1 2 Z" /><glyph glyph-name="" unicode="&#x5c42;" d="M63 209 q0 2 2 1 l24 -11 l105 2 l11 12 l21 -14 q2 -1 2 -1 q0 -1 -2 -2 l-5 -7 l-1 -29 l2 -3 q1 -2 -1 -2 q-7 0 -22 1 q-15 0 -23 0 l-89 -2 l0 -35 q2 -79 -84 -142 q-2 -1 -2 1 q0 2 2 3 q36 33 49 66 q13 31 13 86 l0 45 l-2 31 ZM179 35 q0 2 2 2 q41 -23 46 -38 q1 -13 -15 -25 q-8 -3 -8 5 q-1 14 -6 26 q-91 -21 -107 -29 q-2 -2 -4 0 l-8 23 q21 -2 23 4 q20 27 35 68 l-21 -1 q-18 0 -28 -2 l-7 7 l130 3 l14 15 l18 -17 q2 -1 -1 -3 l-100 -2 l22 -11 q2 -1 0 -4 q-17 -21 -54 -55 l86 8 q-6 15 -17 26 ZM87 193 l0 -33 l108 2 l0 33 l-108 -1 l0 -1 ZM138 115 q-17 -1 -26 -3 l-8 7 l79 2 l13 14 l16 -15 q2 -1 0 -3 l-74 -2 Z" /><glyph glyph-name="" unicode="&#x5c49;" d="M202 137 l-4 -6 l0 -30 l12 0 l14 15 l18 -17 q2 -1 0 -3 l-44 -1 l0 -23 l1 -26 q-3 -18 -18 -28 q-4 0 -4 3 l-1 16 l-23 0 q-2 -9 -12 -20 q-6 -2 -6 1 l0 41 l0 35 l-19 0 l0 -97 l86 1 l16 14 l17 -16 q1 -1 1 -2 q0 -1 -2 -1 l-117 -1 q-6 -12 -16 -20 q-4 -1 -5 2 l1 54 l0 65 q-3 0 -7 -1 q-6 0 -8 -1 l-5 4 q2 -62 -73 -119 q-2 0 -2 2 q-1 1 1 2 q33 30 45 62 q5 16 7 36 q2 18 2 55 l0 44 l-2 31 q0 3 2 2 l23 -11 l114 2 l11 12 l21 -14 q2 -1 2 -1 q0 -1 -2 -2 l-5 -7 l-1 -26 l2 -4 q1 -2 -1 -2 q-22 2 -45 1 l-98 -2 l0 -37 q0 -11 -1 -20 l20 0 q0 37 -1 43 q1 3 1 1 l23 -10 q2 -1 0 -2 l-4 -8 l0 -23 l19 0 l0 12 l-1 35 l23 -8 q2 -2 0 -3 l-3 -6 l0 -30 l22 1 l0 13 l-1 35 l26 -8 q3 -1 1 -4 ZM78 192 l0 -30 l117 2 l0 31 l-116 -1 l-1 -2 ZM154 94 l0 -52 l22 0 l0 53 l-22 -1 Z" /><glyph glyph-name="" unicode="&#x5de2;" d="M77 81 q-5 -9 -15 -15 q-4 -2 -5 4 l0 57 q0 14 -1 18 q0 3 3 2 l15 -10 l93 2 l9 10 l22 -12 q0 0 1 -1 q1 0 0 -2 l-5 -5 l1 -30 q0 -13 -15 -26 q-6 -5 -8 0 q-5 9 -8 11 l-30 -1 l0 -21 l71 3 l15 17 l21 -18 q1 -3 -1 -4 l-94 -3 q31 -37 98 -48 q3 -2 0 -4 q-21 0 -36 -20 q-48 20 -65 72 l-9 0 l0 -29 l1 -32 q-2 -18 -20 -30 q-5 -2 -6 3 l2 45 l0 20 q-54 -38 -106 -54 q-3 0 -2 3 q55 26 102 73 l-54 -1 q-10 -1 -24 -3 q-3 -1 -4 -1 l-9 8 l97 3 l0 20 l-34 -1 ZM168 134 l-34 0 l0 -19 l29 1 q2 0 2 -2 q0 -3 -2 -3 l-29 -1 l0 -22 l34 1 l0 45 ZM71 215 l22 -9 q1 -1 0 -1 q1 0 -1 -1 l-4 -3 q-8 -7 -25 -19 q-2 -2 -3 -3 q31 -9 30 -21 q0 -11 -10 -13 q-9 -2 -10 7 q-1 16 -15 27 q12 21 16 36 ZM122 216 l22 -10 q1 -1 0 -1 q1 0 -1 -1 l-5 -3 q-16 -14 -26 -20 q30 -11 29 -21 q0 -12 -11 -14 q-8 -1 -10 8 q-1 16 -13 27 q9 16 15 35 ZM173 215 l22 -11 q2 1 0 -2 l-4 -3 q-4 -2 -14 -8 q-10 -6 -15 -9 q29 -9 29 -18 q0 -12 -10 -14 q-9 -3 -11 9 q-1 14 -13 23 q11 18 16 33 ZM77 109 l0 -23 l34 1 l0 22 l-34 0 ZM77 133 l0 -20 l34 1 l0 19 l-34 0 Z" /><glyph glyph-name="" unicode="&#x5dee;" d="M163 215 l25 -9 q2 -1 0 -4 l-5 -4 q-19 -19 -34 -32 l49 0 l15 15 l19 -16 q2 -3 -1 -3 l-97 -2 q-1 -5 -3 -13 q-3 -14 -5 -20 l41 0 l13 13 l18 -15 q2 -1 0 -3 l-74 -1 q-6 -17 -13 -32 l101 2 l15 15 l20 -17 q2 -3 -1 -3 l-138 -3 q-7 -15 -18 -30 l96 2 l10 11 l15 -14 q3 -2 -1 -2 l-57 -1 l-1 -63 l58 1 l16 15 l16 -16 q2 -2 0 -3 l-155 -3 q-5 -1 -12 -2 q-10 -1 -14 -2 l-9 8 l77 2 l1 63 l-44 -1 q-27 -35 -83 -73 q-2 -1 -2 0 q0 2 1 3 q59 44 84 104 l-40 0 q-14 -1 -27 -3 l-7 8 l77 1 q6 17 11 33 l-16 0 q-10 -1 -22 -2 q-3 -1 -5 -1 l-9 8 l53 0 q4 17 7 33 l-42 -1 q-17 0 -27 -3 l-9 9 l113 1 q10 22 16 44 q1 3 2 5 q0 2 2 1 ZM76 210 q2 -1 6 -4 q26 -14 23 -21 q-2 -10 -12 -15 q-9 -1 -10 6 q-1 23 -10 33 q0 2 3 1 Z" /><glyph glyph-name="" unicode="&#x5df1;" d="M72 179 q-17 0 -27 -3 l-8 8 l128 3 l13 14 l25 -15 q3 -1 0 -4 l-8 -9 l-1 -62 l2 -4 q1 -2 -1 -3 q-11 2 -63 2 l-54 -1 l-1 -4 l-4 -76 q-3 -15 12 -15 q71 -6 117 6 q16 4 25 28 q1 2 3 2 q2 -1 1 -3 q-3 -22 4 -28 q17 -18 -7 -26 q-57 -14 -141 -4 q-35 7 -36 50 l1 52 q0 10 -1 26 q0 7 0 10 q0 3 2 2 l26 -14 l87 2 l1 67 l0 1 l-95 -2 Z" /><glyph glyph-name="" unicode="&#x5e26;" d="M191 99 l20 -13 q2 0 1 -3 l-6 -7 l0 -36 q-1 -22 -27 -34 q-1 0 -1 2 q-1 12 -9 17 q-1 1 0 2 q14 -2 14 5 l-1 51 l-42 -1 l0 -48 l1 -28 q-2 -19 -15 -35 q-3 -4 -6 -4 q-4 1 -4 5 l2 48 l0 60 l0 1 l-45 -1 l0 -44 q1 -14 -11 -26 q-3 -3 -4 -2 q-2 0 -2 4 l0 54 l-1 25 q0 3 2 2 l15 -8 l46 1 q0 7 -1 18 q0 13 -1 18 l21 -8 q4 -1 4 -6 l-1 -20 l0 -1 l42 1 l9 11 ZM63 214 l26 -9 q2 -1 0 -3 l-4 -7 l0 -22 l31 0 l1 12 l-1 28 l27 -8 q2 -1 0 -3 l-5 -7 l0 -21 l29 0 l0 10 l-1 28 l26 -9 q2 -1 0 -2 l-4 -7 l0 -20 l25 1 l14 15 l18 -17 q2 -3 -1 -3 l-56 -1 l0 -9 q0 -13 -15 -24 q-6 -4 -7 2 l0 31 l-28 -1 l0 -9 q0 -14 -15 -24 q-3 -2 -5 -2 q-2 1 -2 4 l0 31 l-31 -1 l0 -10 q-1 -13 -15 -23 q-6 -4 -7 2 l0 31 l-14 0 q-17 0 -27 -3 l-8 8 l50 1 l0 13 l-1 28 ZM29 81 q-6 -3 -11 11 q-1 3 2 5 q19 13 27 39 q0 2 2 2 q1 0 1 -2 l0 -8 l158 4 l12 11 l24 -22 q3 -4 -2 -5 q-14 0 -36 -14 q-2 -1 -3 0 q-1 1 0 2 l6 22 l-159 -4 q-1 -28 -21 -41 Z" /><glyph glyph-name="" unicode="&#x5e94;" d="M57 188 q-1 2 1 1 l25 -12 l51 1 l1 34 l33 -6 q2 -1 0 -3 q-5 -6 -6 -24 l41 0 l15 15 l18 -16 q1 -1 0 -2 q0 -1 -2 -1 l-154 -3 l0 -58 q7 -74 -76 -142 q-4 1 -2 4 q33 34 44 65 q12 29 12 85 l0 31 l-1 31 ZM203 143 l30 -18 q2 -2 0 -5 l-8 -9 q-22 -48 -72 -118 l52 1 l15 18 l22 -20 q1 -2 1 -2 q-1 -1 -2 -1 l-148 -5 q-10 0 -24 -2 q-4 -1 -5 -1 l-8 9 l92 2 q39 80 55 151 ZM126 147 q39 -38 44 -57 q-1 -13 -20 -21 q-8 -3 -8 5 q-1 39 -18 71 q0 3 2 2 ZM84 113 q31 -34 37 -56 q2 -8 -17 -20 q-5 -2 -7 0 q-2 2 -1 7 q-1 39 -14 67 q-1 2 2 2 Z" /><glyph glyph-name="" unicode="&#x5ea6;" d="M66 192 q-1 3 1 2 l25 -11 l48 1 l2 31 l30 -6 q1 0 2 -1 q0 0 -1 -2 q-6 -5 -7 -22 l38 1 l14 14 l18 -15 q1 -1 0 -2 q0 -1 -2 -1 l-145 -4 l0 -36 l32 1 l-1 24 q0 2 2 2 l19 -7 q1 -1 1 -4 l-1 -14 l31 1 l0 29 q-1 3 1 2 l22 -9 q1 -1 0 -3 l-1 -19 l18 1 l13 13 l15 -15 q3 -2 -1 -2 l-46 -2 l-2 -25 l5 -5 q1 -3 -1 -4 q-16 2 -56 0 l-1 -11 q-1 -3 -2 -3 q-1 0 -2 1 q-8 4 -11 10 l-2 34 l-8 0 q-6 1 -18 -2 l-6 6 l0 -20 q1 -81 -85 -144 q-2 0 -2 2 q-1 1 1 2 q37 34 51 67 q13 31 13 85 l0 30 l-1 30 ZM245 -9 q2 -1 2 -2 q0 -2 -2 -2 q-11 -2 -28 -19 q-43 20 -67 49 q-33 -23 -96 -50 q-2 -1 -2 0 q-1 2 1 3 q59 31 88 60 q-13 18 -23 42 l3 1 q9 -19 27 -36 q18 18 36 42 l-62 -2 q-9 0 -17 -3 l-9 8 l90 2 l10 11 l23 -14 q2 -1 0 -3 l-9 -7 q-26 -28 -48 -44 q32 -21 83 -36 ZM173 112 l-1 26 l-31 -1 l-2 -26 l34 1 Z" /><glyph glyph-name="" unicode="&#x5eb7;" d="M123 141 q-13 0 -25 -2 l-8 7 l50 1 q0 8 -1 19 q0 5 0 6 q0 1 2 1 l23 -5 q3 0 1 -2 q-3 -3 -3 -7 l0 -12 l20 0 l0 -5 l-20 0 l0 -17 l0 -4 l26 1 l0 20 l-1 5 l10 11 l20 -13 q2 -1 0 -4 l-5 -6 l-1 -13 l6 1 l12 12 l14 -14 q2 -2 0 -3 l-32 -1 l-1 -26 l1 -2 q1 -2 -1 -2 l-20 0 l-28 0 l0 -55 l1 -27 q-2 -26 -29 -38 q-2 -1 -2 2 q-3 14 -10 17 q-3 3 0 4 q19 -1 18 11 l0 46 q-3 -3 -10 -8 q-35 -31 -45 -44 q-6 -6 -12 -5 q-7 2 -4 9 q8 15 5 26 q9 -12 66 27 l0 34 l-15 0 q-17 0 -26 -3 l-8 8 l49 1 l0 23 l-55 -1 q4 -76 -81 -137 q-2 0 -2 2 q-1 1 1 2 q36 33 50 66 q13 31 12 85 l0 29 l-1 31 q-1 3 2 1 l24 -10 l44 0 l1 30 l31 -5 q2 -1 0 -3 q-5 -7 -6 -21 l40 1 l14 14 l18 -16 q2 -3 -1 -3 l-145 -4 l0 -56 l54 1 l0 3 q0 9 0 17 l-17 0 ZM163 74 l1 0 q6 -12 13 -21 q19 17 24 25 l14 -14 q2 -1 -1 -3 q-2 -1 -8 -3 q-18 -5 -27 -9 q16 -20 65 -41 q2 -1 1 -3 q0 -1 -2 -1 q-10 3 -26 -15 q-42 26 -54 85 ZM162 92 l25 1 l1 23 l-26 0 l0 -24 ZM94 76 q24 -9 25 -18 q1 -8 -8 -14 q-9 -3 -10 4 q0 16 -9 27 q-2 2 2 1 Z" /><glyph glyph-name="" unicode="&#x5f02;" d="M57 210 l20 -14 l0 -1 l90 2 l10 12 l21 -13 q2 -1 0 -4 l-5 -7 l0 -23 l2 -3 q1 -2 -2 -2 q-22 1 -45 1 l-74 -2 l-2 -17 q-1 -15 11 -15 q58 -6 110 5 q15 2 22 21 q1 1 2 1 q1 0 1 -2 q-3 -18 7 -20 q9 -4 7 -12 q-2 -7 -13 -10 q-53 -12 -133 -3 q-31 4 -31 47 l1 30 q0 20 -1 27 q0 3 2 2 ZM162 -30 q-6 -2 -7 4 l1 51 l0 31 l-47 0 l0 -7 q2 -59 -104 -84 q-3 0 -1 3 q87 24 84 87 l-35 0 q-3 0 -10 -1 q-14 0 -19 -2 l-7 7 l71 1 l0 14 l0 24 l24 -10 q2 0 0 -3 l-2 -6 l0 -18 l46 0 l0 11 l-1 23 l25 -9 q3 0 1 -4 l-2 -7 l0 -13 l38 0 l14 14 l17 -16 q2 -2 -1 -2 l-68 -1 l0 -29 l1 -29 q-4 -16 -18 -29 ZM74 162 l93 2 l0 29 l-90 -2 l-3 -29 Z" /><glyph glyph-name="" unicode="&#x5f0f;" d="M140 210 l25 -11 q2 0 -1 -3 l-4 -4 q-2 -19 -1 -36 l48 1 l13 14 l18 -16 q1 -2 -2 -3 l-77 -2 q4 -100 60 -138 q7 -3 10 1 l10 11 q3 2 4 -2 q-8 -15 1 -27 q5 -12 -2 -19 q-8 -5 -21 0 q-76 36 -83 174 l-82 -2 q-10 0 -25 -3 q-1 0 -2 0 l-8 8 l117 2 q0 28 2 55 ZM33 100 q-4 2 0 5 l72 2 l12 13 l16 -14 q2 -1 2 -1 q0 -1 -2 -2 l-40 -1 l-1 -77 l46 16 q2 1 3 0 q1 -2 0 -3 l-62 -37 q-1 -1 -3 -2 q-21 -12 -28 -19 q0 0 -1 0 q-2 -2 -3 0 l-18 22 q-3 3 0 4 q18 3 41 11 l4 1 l0 83 l-38 -1 ZM178 193 q23 -6 26 -11 q-2 -10 -9 -15 q-5 -4 -7 2 q-1 2 -2 5 q-7 13 -10 17 q0 2 2 2 Z" /><glyph glyph-name="" unicode="&#x5f39;" d="M188 214 l20 -13 q2 -1 -1 -3 l-5 -4 l-28 -29 l25 1 l6 11 l20 -11 q0 0 1 -1 q1 0 0 -2 l-5 -7 l1 -56 q-2 -13 -11 -24 q-3 -3 -4 -3 q-1 0 -3 2 q-3 5 -7 13 l-23 0 l0 -34 l44 1 l14 14 l16 -16 q1 -1 1 -2 q0 -1 -2 -1 l-73 -2 l0 -6 l1 -44 q-5 -18 -14 -27 q-3 -3 -6 -3 q-2 0 -2 3 l1 76 l0 1 l-27 -1 q-17 -1 -27 -3 l-6 8 l60 1 l0 34 l-24 -1 q-3 -8 -11 -14 q-5 -3 -6 2 l1 38 l0 42 q0 13 0 19 q-1 3 1 1 l15 -10 l37 1 l21 49 ZM52 185 q-16 0 -26 -2 l-8 7 l53 2 l11 10 l17 -12 q2 -1 0 -4 l-5 -6 l-1 -42 l1 -2 q1 -2 -2 -2 l-18 0 l-27 -1 l-3 -44 q0 -1 0 -1 l26 1 l7 10 l21 -9 q2 0 0 -3 l-5 -6 q-1 -44 -12 -83 q-8 -17 -30 -28 q-2 -1 -3 0 q-2 1 -1 3 q1 14 -8 17 q-1 2 -1 3 q1 2 3 1 q16 -2 17 3 q12 20 13 86 l-29 -1 q-5 -9 -14 -16 q-2 -2 -3 -1 q-2 1 -2 3 l3 28 l3 55 q0 1 1 1 l17 -13 l24 1 l2 46 l-21 -1 ZM199 161 l-24 0 l-1 -31 l20 1 q3 0 2 -2 q0 -3 -2 -2 l-20 -1 l0 -33 l25 1 l0 67 ZM130 124 l0 -33 l24 1 l0 33 l-24 -1 ZM130 159 l0 -30 l24 1 l0 30 l-24 -1 ZM125 207 q31 -10 30 -18 q-1 -11 -9 -16 q-6 -1 -7 3 q-6 19 -15 30 q-1 2 1 1 Z" /><glyph glyph-name="" unicode="&#x5f53;" d="M86 63 q-14 -1 -27 -3 l-8 8 l138 1 l0 52 l-2 6 l12 16 l24 -15 q2 -1 0 -4 l-7 -10 l-1 -48 l1 -48 q2 -24 -16 -44 q-3 -4 -6 0 q-5 13 -12 23 l-120 -1 q-17 0 -26 -3 l-8 9 l161 1 l0 61 l-103 -1 ZM69 118 q-17 0 -27 -3 l-8 8 l79 1 l0 49 l-1 40 l29 -8 q4 -2 1 -5 l-4 -8 l-2 -67 l3 0 q28 40 38 71 l25 -17 q0 0 1 -1 q2 -1 -2 -3 l-57 -50 l37 0 l0 -5 l-112 -2 ZM47 188 q0 3 2 2 q35 -18 42 -31 q3 -9 -13 -21 q-7 -4 -8 2 q-8 33 -23 48 Z" /><glyph glyph-name="" unicode="&#x5f71;" d="M105 139 q2 -1 0 -3 q-3 -3 -3 -11 l0 -4 l32 1 l13 14 l18 -15 q1 -1 1 -2 q0 -1 -2 -1 l-108 -2 q-3 0 -9 -1 q-15 0 -22 -2 l-8 7 l63 1 l0 23 l-21 0 q-4 -9 -10 -12 q-6 -3 -6 1 l0 52 q0 3 -1 11 q0 6 0 8 q0 3 2 1 l14 -8 l58 1 l9 12 l22 -11 q2 0 0 -2 l-5 -8 l0 -38 l2 -4 q2 -3 -2 -2 q-14 0 -35 0 l-22 -1 l20 -5 ZM103 6 q0 -22 -26 -35 q-2 -1 -3 1 q-1 12 -9 16 q-2 1 -2 2 q0 1 2 1 q17 -2 16 6 l0 59 q-9 0 -21 0 q-4 -8 -11 -12 q-5 -3 -6 1 l1 23 l0 10 q0 21 -1 25 q0 2 3 1 l17 -8 l55 1 l9 11 l20 -12 q2 -1 0 -3 l-6 -6 l0 -27 l2 -3 q0 0 -1 -1 q-2 0 -8 0 q-17 1 -31 0 l0 -23 l0 -27 ZM103 -36 q-4 0 -1 5 q71 40 121 117 l20 -21 q2 -2 0 -4 l-5 -4 q-42 -44 -135 -93 ZM117 194 l-58 -1 l0 -19 l50 1 q2 0 2 -2 q0 -1 -2 -2 l-50 -2 l0 -21 l59 2 l-1 44 ZM62 92 l0 -31 l56 0 l0 32 l-56 -1 ZM223 149 l16 -18 q2 -2 0 -4 q-44 -36 -84 -59 q-1 -1 -2 0 q-1 1 0 3 q44 37 67 76 q1 2 1 3 q0 0 2 -1 ZM214 207 l18 -16 q2 -1 0 -3 q-24 -25 -71 -56 q-2 -1 -3 0 q-1 1 0 2 q38 40 53 72 q2 2 3 1 ZM76 37 q2 -1 0 -3 q-20 -28 -67 -62 q-3 0 -1 2 q33 29 47 72 l21 -9 ZM112 45 q34 -11 38 -25 q1 -7 -9 -14 q-6 -3 -9 2 q-7 24 -21 36 q0 1 1 1 Z" /><glyph glyph-name="" unicode="&#x5f97;" d="M141 136 q-2 -6 -11 -15 q-2 -2 -4 -1 q-1 0 -1 2 l1 30 l0 33 q0 5 -1 14 q0 5 0 7 q0 3 2 2 l15 -8 l53 2 l9 11 l19 -11 q2 0 1 -3 l-4 -7 l0 -40 q1 -11 -11 -23 q-5 -6 -8 -1 q-5 7 -8 11 l-52 -3 ZM144 103 q-18 0 -28 -2 l-7 6 l103 2 l10 11 l15 -13 q2 -2 0 -2 l-35 -1 l-1 -33 l20 1 l12 13 l16 -16 q2 -2 0 -2 l-48 -1 l-1 -59 q0 -24 -26 -37 q-3 0 -4 1 q0 14 -8 18 q-3 2 0 4 q18 -2 16 6 l1 66 l-43 0 q-3 0 -9 -1 q-13 0 -18 -2 l-8 7 l78 2 l1 33 l-36 -1 ZM4 41 q-3 -1 -2 2 q53 43 86 115 l21 -16 q2 -2 -1 -4 l-3 -3 q-10 -13 -19 -23 l2 -115 q-3 -16 -14 -30 q-6 -3 -6 2 l1 68 l1 57 q-26 -25 -66 -53 ZM197 197 l-56 -2 l0 -23 l46 2 q2 0 2 -2 q0 -2 -2 -3 l-46 -2 l1 -25 l54 2 l1 53 ZM89 212 l16 -15 q2 -2 2 -3 q0 -1 -3 -3 q-26 -20 -77 -45 q-3 -1 -1 2 q42 28 63 64 ZM126 55 q1 0 2 -2 q27 -16 24 -24 q-1 -10 -13 -13 q-7 -1 -8 6 q0 19 -7 31 q-1 3 2 2 Z" /><glyph glyph-name="" unicode="&#x5feb;" d="M135 215 l29 -10 q3 -2 0 -5 l-5 -7 l0 -35 l28 1 l9 13 l21 -13 q3 0 1 -2 l-8 -9 l-1 -59 l8 0 l14 14 l15 -15 q3 -3 -1 -4 l-91 -2 q-10 -66 -89 -117 q-2 -1 -3 0 q-1 2 1 3 q67 50 71 114 l-18 -1 q-10 0 -22 -2 q2 1 -3 0 l-8 7 l52 1 q2 21 2 48 l0 17 l-36 -1 q-3 0 -4 2 q0 4 3 4 l37 1 l0 19 q-2 24 -2 38 ZM55 210 q0 2 1 3 q1 0 3 -1 l19 -7 q2 -1 0 -3 l-2 -6 l-4 -141 l2 -46 q-4 -21 -17 -33 q-6 -3 -7 3 l4 79 l3 120 l-2 32 ZM165 75 q4 -48 76 -81 q4 -2 0 -5 q-15 0 -34 -15 q-42 35 -45 101 l3 0 ZM187 154 l-29 -1 l0 -23 q0 -23 -3 -42 l32 1 l0 65 ZM42 148 q0 1 1 2 q1 -1 2 -2 q3 -32 -6 -51 q-8 -13 -27 -14 q-7 9 0 16 q22 9 30 49 ZM85 143 q19 -9 22 -18 q0 -5 -9 -13 q-5 -3 -6 1 q-8 14 -9 28 q-1 4 2 2 Z" /><glyph glyph-name="" unicode="&#x6052;" d="M186 147 l11 14 l22 -14 q2 -1 0 -3 q1 0 0 -1 l-6 -9 l0 -74 q1 -26 -19 -44 q-6 -3 -7 2 q-3 11 -8 21 l-45 -2 q-3 -12 -12 -23 q-6 -5 -9 0 l1 102 l-2 39 q0 5 4 3 l18 -13 l52 2 ZM134 140 l0 -42 l42 2 q3 0 3 -3 q0 -3 -3 -3 l-42 -1 l0 -51 l52 3 q0 1 0 1 l1 96 l-53 -2 ZM53 211 q0 2 1 2 q1 0 2 -1 l20 -9 q2 -1 0 -3 l-2 -6 l-3 -166 l1 -37 q-5 -13 -15 -22 q-4 -2 -5 -2 q-2 1 -2 4 l3 79 l2 125 l-2 36 ZM118 -16 q-13 0 -26 -2 q1 0 -1 0 l-8 8 l133 3 l16 16 l18 -18 q2 -2 0 -3 l-132 -4 ZM130 184 q-16 0 -29 -2 l-7 7 l112 3 l14 16 l20 -18 q1 -2 -1 -2 l-109 -4 ZM41 151 q2 2 3 0 q5 -31 -5 -52 q-8 -14 -26 -13 q-7 8 0 15 q22 10 28 50 ZM82 150 q16 -8 18 -16 q0 -4 -8 -11 q-3 -2 -5 1 q-6 14 -7 24 q-1 4 2 2 Z" /><glyph glyph-name="" unicode="&#x6070;" d="M187 76 l9 13 l23 -12 q2 -1 0 -3 l-5 -7 l0 -56 l2 -6 q1 -2 0 -2 q0 -1 -3 -1 q-26 2 -77 2 l0 -8 q-2 -10 -13 -20 q-3 -3 -4 -2 q-2 1 -2 4 l1 39 l1 41 l-1 28 l19 -12 l50 2 ZM55 209 q0 2 1 2 q1 0 3 -1 l19 -7 q2 -1 0 -3 l-2 -6 l-4 -141 l2 -46 q-4 -20 -17 -32 q-3 -2 -5 -2 q-2 1 -2 4 l4 79 l3 120 l-2 33 ZM85 82 q-3 -1 -3 0 q-1 0 0 2 q53 55 76 130 l23 -10 q2 -2 0 -3 l-2 -2 q10 -44 75 -85 q1 -1 1 -2 q0 -1 -2 -1 q-13 2 -26 -12 q-42 41 -50 98 l-1 0 q-33 -64 -91 -115 ZM136 69 l0 -60 l51 1 l1 61 l-52 -2 ZM42 153 q0 1 2 2 q1 -1 1 -2 q3 -32 -6 -51 q-8 -14 -26 -13 q-8 8 0 15 q22 10 29 49 ZM162 113 q-18 0 -30 -2 l-5 7 l50 1 l12 13 l17 -14 q1 -3 -2 -4 l-42 -1 ZM85 148 q16 -7 21 -16 q-1 -5 -9 -12 q-4 -3 -6 0 q-7 15 -8 26 q-1 4 2 2 Z" /><glyph glyph-name="" unicode="&#x60c5;" d="M133 100 l57 2 l9 11 l21 -12 q2 -1 0 -3 l-6 -7 l1 -75 q3 -32 -25 -48 q-3 -1 -3 2 q0 12 -9 17 q-1 1 -1 2 q0 1 2 1 q15 0 13 8 l-1 98 l-58 -2 l-1 -24 l50 1 q3 0 3 -2 q0 -2 -2 -3 l-51 -2 l0 -26 l51 2 q2 -1 2 -2 q0 -2 -2 -3 l-51 -2 l0 -33 q-2 -15 -13 -27 q-4 -4 -5 -4 q-2 0 -1 4 l1 43 l1 94 l18 -10 ZM49 211 q0 2 1 3 q2 0 3 -1 l19 -9 q2 -1 0 -3 l-2 -6 l-3 -159 l-1 -32 q1 -9 -1 -17 q-4 -12 -14 -19 q-3 -2 -4 -2 q-2 1 -2 3 l3 79 l3 131 l-2 32 ZM134 173 q-12 0 -25 -2 q1 0 -1 0 l-9 7 l53 1 l-1 35 l27 -8 q1 0 2 -1 q-1 -1 -2 -2 q0 0 0 -1 q-3 -4 -3 -9 l-1 -14 l27 1 l13 12 l15 -14 q1 -2 -1 -3 q0 1 -1 0 l-53 -1 l0 -23 l18 0 l12 12 l14 -13 q1 -2 1 -2 q-1 -1 -2 -1 l-43 -1 l0 -23 l45 1 l12 13 l17 -15 q1 -2 -1 -3 q0 1 -1 0 l-126 -3 q-15 0 -26 -3 l-8 8 l66 1 l0 23 l-35 -1 q-4 0 -4 3 q0 2 4 3 l35 0 l0 20 l0 3 l-18 0 ZM38 159 q2 2 3 0 q6 -31 -5 -54 q-9 -15 -23 -13 q-8 9 0 17 q22 12 25 50 ZM78 157 q20 -10 21 -18 q-2 -7 -9 -12 q-4 -3 -6 1 q-6 11 -9 27 q-1 3 3 2 Z" /><glyph glyph-name="" unicode="&#x611f;" d="M51 187 q0 3 2 2 l22 -14 l70 1 q-1 18 -3 39 l25 -12 q2 -1 -1 -3 l-4 -5 q0 -9 2 -18 l31 0 l14 15 l17 -16 q1 -2 -2 -3 l-60 -1 q5 -28 14 -48 q11 15 20 31 l18 -13 q2 0 0 -4 l-5 -3 q-12 -15 -24 -27 q13 -19 28 -30 q5 -5 9 2 l8 8 q1 1 3 1 q1 -1 0 -3 q-10 -14 -1 -27 q5 -10 -1 -16 q-6 -4 -16 2 q-31 19 -48 48 q-26 -20 -63 -41 q-3 2 -1 4 q35 24 58 50 q-11 27 -17 65 l-72 -2 l0 -39 q4 -46 -70 -100 q-2 -1 -2 1 q-1 2 1 3 q29 26 39 48 q11 20 11 56 l0 19 l-2 30 ZM77 52 l18 -8 q2 -1 -1 -4 l-2 -3 q-5 -13 -3 -29 q1 -9 13 -12 q29 -5 53 0 q9 2 9 8 l0 22 q1 2 2 2 q1 1 2 -1 q6 -25 24 -27 q8 -3 8 -8 q0 -6 -9 -10 q-17 -7 -45 -9 q-31 -1 -52 5 q-18 8 -20 27 q-2 19 1 45 q0 3 2 2 ZM122 131 l16 -10 q0 0 0 -1 q1 -1 0 -1 l-5 -8 l0 -24 l1 -3 q0 -2 -1 -2 q-7 0 -39 -1 q-3 -9 -10 -17 q-2 -2 -3 -1 q-1 0 -1 2 l1 39 q0 15 0 25 q0 2 2 0 l12 -8 l19 1 l8 9 ZM190 36 q43 -8 46 -20 q1 -9 -8 -19 q-8 -5 -12 4 q-12 21 -27 33 q-3 3 1 2 ZM42 41 q1 4 4 1 q16 -27 11 -42 q-7 -9 -20 -12 q-6 0 -7 3 q-1 3 2 8 q13 19 10 42 ZM95 117 l-1 -31 l20 1 l0 31 l-19 -1 ZM120 49 q25 -10 26 -19 q-1 -10 -11 -14 q-8 -4 -9 3 q-1 19 -9 28 q-1 2 0 2 q1 1 3 0 ZM81 142 q-2 0 -3 2 q0 3 2 3 l37 1 l10 11 l12 -12 q2 -2 0 -3 l-58 -2 ZM177 207 q19 -4 20 -9 q-2 -9 -7 -12 q-3 -3 -5 2 q-1 2 -3 6 q-5 9 -6 12 q-1 1 1 1 Z" /><glyph glyph-name="" unicode="&#x6210;" d="M61 172 q0 3 2 2 l25 -14 l59 2 q0 7 0 23 q1 16 1 24 l25 -9 q2 -1 0 -3 l-5 -5 q-1 -15 -1 -30 l42 1 l14 16 l18 -17 q2 -3 -1 -3 l-73 -2 q-1 -45 11 -79 q12 22 21 46 l19 -13 q4 -3 0 -5 q0 -1 -2 -3 q-1 -2 -2 -3 q-13 -24 -27 -43 q14 -27 38 -42 q6 -4 10 1 l10 10 q1 1 3 1 q2 -1 1 -3 q-10 -15 -2 -28 q5 -12 -1 -17 q-7 -5 -20 1 q-34 16 -56 58 q-32 -36 -99 -69 q-1 -1 -2 1 q0 1 1 2 q59 35 94 83 q-16 44 -16 101 l-63 -1 l0 -41 l0 -1 l26 1 l8 12 l20 -10 q2 -1 0 -3 l-6 -10 l0 -28 l1 -19 q-2 -25 -28 -41 q-2 -1 -3 0 q-2 1 -1 3 q2 12 -8 14 q-2 4 1 4 q17 -2 15 13 l2 60 l-27 -1 q4 -71 -81 -132 q-2 -1 -2 1 q-1 1 1 2 q36 32 48 63 q12 29 12 85 l0 15 l-2 30 ZM189 197 q19 -5 21 -10 q-1 -7 -7 -13 q-4 -3 -6 2 q-2 5 -7 14 q-2 4 -3 6 q0 1 2 1 Z" /><glyph glyph-name="" unicode="&#x6216;" d="M141 210 l25 -9 q2 -1 0 -3 l-5 -5 q0 -1 0 -3 q-2 -12 -2 -25 l46 1 l14 14 l17 -16 q1 -1 1 -1 q0 -1 -2 -2 l-76 -2 q-1 -45 11 -82 q13 23 22 48 l20 -14 q2 -1 2 -2 q0 -1 -2 -2 q-3 -3 -4 -6 q-14 -26 -28 -44 q14 -27 38 -41 q6 -4 10 1 l10 10 q3 2 4 -2 q-8 -13 0 -26 q4 -12 -3 -19 q-7 -5 -20 0 q-37 18 -56 57 q-32 -34 -99 -67 q-3 -1 -1 2 q59 35 93 82 q-17 44 -17 105 l-81 -2 q-18 0 -27 -3 l-8 8 l116 3 q0 23 2 45 ZM111 135 l18 -13 q2 -1 0 -2 l-5 -7 l0 -40 l1 -3 q1 0 -1 -1 q-17 0 -53 -1 l0 -10 q-1 -17 -14 -27 q-2 -2 -4 -1 q-1 0 -1 2 l1 31 l1 45 q0 5 -1 16 q0 7 0 9 q0 3 2 1 l16 -9 l32 1 l8 9 ZM103 122 l-32 -1 l0 -49 l32 2 l0 48 ZM120 30 q3 -1 1 -2 l-69 -24 q-3 -1 -12 -5 q-8 -4 -12 -5 q-3 -3 -4 0 l-9 14 q-2 2 1 2 q14 2 31 5 l73 15 ZM181 197 q20 -4 21 -9 q-1 -8 -7 -14 q-4 -3 -6 2 q-5 12 -10 20 q0 2 2 1 Z" /><glyph glyph-name="" unicode="&#x623f;" d="M69 192 q0 3 2 2 l24 -11 l39 1 l2 31 l30 -7 q3 0 1 -3 q-5 -4 -6 -21 l37 1 l11 12 l21 -13 q3 -1 0 -4 l-5 -7 l0 -23 l2 -4 q1 -2 -2 -2 q-13 1 -49 1 l-86 -2 l0 -24 q2 -78 -85 -140 q-2 0 -2 1 q0 2 2 3 q38 35 52 67 q14 31 14 82 l0 30 l-2 30 ZM197 83 l20 -13 q2 -1 0 -2 l-6 -7 l-2 -39 q-3 -34 -35 -47 q-2 -1 -2 2 q3 13 -5 18 q-3 1 0 2 q17 -2 18 16 l3 54 l-40 -2 l-1 -6 q-3 -52 -91 -90 q-2 -1 -3 1 q-1 1 1 2 q78 38 75 109 l0 18 l-4 0 q-15 0 -25 -3 l-9 8 l118 3 l12 13 l15 -15 q1 -1 2 -2 q-1 -1 -2 -1 l-98 -3 l13 -5 q3 -1 0 -4 l-1 -6 l-2 -13 l40 1 l9 11 ZM90 177 l0 -29 l109 3 l1 29 l-110 -3 ZM145 141 q25 -10 26 -19 q-2 -11 -14 -14 q-6 -1 -7 4 q0 18 -7 27 q-1 3 2 2 Z" /><glyph glyph-name="" unicode="&#x6240;" d="M144 195 l19 -11 q25 14 39 27 q4 2 5 0 l17 -22 q1 -2 0 -2 q0 -1 -2 -1 q-9 -1 -48 -7 q-7 -1 -10 -2 l-1 -1 l0 -46 l55 1 l14 15 l17 -16 q1 -1 1 -2 q0 -1 -2 -1 l-49 -2 l17 -10 q3 -1 0 -5 l-6 -7 l1 -101 q0 -17 -16 -26 q-6 -3 -7 1 l-1 148 l-24 0 q1 -69 -21 -98 q-21 -32 -88 -58 q-2 0 -2 1 q0 1 1 2 q62 33 75 59 q15 24 14 101 l0 32 q0 21 0 29 q0 3 2 2 ZM115 201 q2 2 2 2 q1 0 2 -2 l10 -17 q1 -3 -2 -3 q-39 -7 -56 -9 l0 -37 l31 0 l9 11 l19 -11 q2 -1 0 -4 l-5 -6 l-1 -44 l3 -4 q1 -4 -2 -4 q-13 1 -57 1 q-4 -68 -64 -102 q-3 -2 -2 1 q33 29 41 57 q10 24 9 94 l0 45 q0 10 0 16 q-1 2 2 2 l17 -9 q27 9 44 23 ZM103 130 l-32 0 l0 -1 q0 -24 -2 -50 l33 1 l1 50 Z" /><glyph glyph-name="" unicode="&#x624b;" d="M179 207 l18 -22 q2 -3 -3 -4 q-4 0 -24 -2 q-24 -2 -40 -4 l10 -4 q2 0 2 -3 l-1 -37 l45 2 l15 15 l18 -17 q2 -3 0 -3 l-78 -3 l0 -44 l69 1 l16 18 l22 -20 q2 -2 -1 -2 l-106 -3 l0 -20 l0 -34 q2 -33 -38 -48 q-2 -1 -2 0 q-1 1 0 3 q0 17 -9 24 q-3 3 1 4 q26 -3 24 10 l-1 60 l-68 -2 q-14 -1 -27 -3 l-8 9 l103 2 l0 45 l-46 -1 q-5 -1 -13 -2 q-10 -1 -14 -2 l-8 9 l81 2 l-1 42 q-12 -2 -38 -4 q-21 -3 -32 -4 q-3 0 -3 1 q0 1 2 3 q102 23 135 38 Z" /><glyph glyph-name="" unicode="&#x624d;" d="M146 213 l30 -8 q1 0 1 -4 l-4 -8 l0 -40 l35 1 l16 16 l22 -18 q1 -2 -1 -3 l-72 -2 l-1 -94 l1 -35 q2 -28 -38 -48 q-2 -1 -2 0 q-1 1 0 3 q2 19 -9 24 q-1 1 -1 2 q1 2 2 1 q24 -2 21 10 l0 103 q-52 -69 -140 -125 q-2 -1 -3 1 q0 1 1 3 q72 52 130 154 l-84 -3 q-14 -1 -27 -3 l-8 8 l131 4 l0 9 q0 41 -1 50 q1 3 1 2 Z" /><glyph glyph-name="" unicode="&#x6253;" d="M58 211 l24 -9 q3 -1 1 -3 l-4 -8 l0 -35 l12 1 l13 13 l16 -14 q1 -3 -2 -3 l-39 -3 l-1 -48 q4 1 11 4 q9 3 30 12 q2 -1 0 -4 q-23 -14 -41 -26 l0 -26 l1 -48 q1 -28 -29 -45 q-2 -1 -3 -1 q-1 1 -1 3 q1 15 -8 19 q-1 1 -1 2 q1 2 2 1 q20 -3 17 11 l1 69 q-21 -13 -29 -22 q-3 -2 -4 1 l-10 28 q0 2 1 2 q7 1 28 8 q9 3 14 4 l0 55 l-11 -1 q-16 0 -27 -3 l-7 8 l45 2 l0 5 q0 13 -1 34 q0 11 0 15 q0 3 2 2 ZM151 174 q-18 -1 -27 -4 l-10 8 l99 3 l14 15 l17 -16 q1 -1 1 -2 q0 -1 -2 -1 l-70 -3 l22 -7 q2 0 0 -3 l-3 -8 l-1 -94 l1 -43 q1 -30 -34 -49 q-3 -1 -4 0 q-1 1 0 3 q0 15 -9 20 q-2 1 -1 2 q0 1 2 1 q25 -1 22 8 l0 122 l-1 48 l-16 0 Z" /><glyph glyph-name="" unicode="&#x626b;" d="M65 213 l24 -8 q2 0 2 -1 q0 0 -2 -2 l-3 -8 l-1 -41 l11 1 l12 12 l15 -13 q1 -2 -1 -3 l-37 -2 l-1 -48 q18 8 35 15 q2 -1 1 -3 q-4 -3 -12 -8 q-7 -5 -24 -17 l0 -33 l1 -39 q1 -28 -29 -46 q-3 -1 -4 0 q-1 0 0 3 q0 16 -8 19 q-2 1 -1 2 q0 1 2 1 q21 -1 18 11 l0 67 q-27 -19 -33 -26 q-2 -2 -2 -1 q0 -1 -1 1 l-8 28 q-1 2 0 2 q0 0 1 1 q17 4 43 14 l0 56 l-39 -2 q-2 0 -3 2 q0 2 2 3 l40 2 l1 10 q0 13 -1 34 q0 11 0 15 q0 3 2 2 ZM125 91 q-3 0 -3 3 q0 3 2 3 l79 1 l1 69 l-81 -2 q-3 1 -3 3 q0 3 2 3 l82 2 l10 15 l22 -13 q3 -1 1 -3 l-8 -11 l-1 -112 l1 -41 q-2 -15 -17 -31 q-4 -3 -6 0 q-4 14 -10 21 l-83 -1 q-3 0 -3 3 q0 3 3 3 l89 1 l1 88 l-78 -1 Z" /><glyph glyph-name="" unicode="&#x6270;" d="M133 211 l27 -8 q3 -1 0 -5 l-3 -7 q0 -8 -1 -22 q0 -16 -1 -23 l55 2 l14 14 l15 -16 q2 -2 -1 -2 l-66 -3 l21 -10 q0 0 0 -1 q1 0 0 -1 l-4 -7 l-16 -100 q-1 -12 9 -14 q15 -3 40 1 q9 2 14 15 q1 2 2 2 q2 0 1 -2 q-2 -14 6 -19 q10 -13 -11 -21 q-27 -5 -54 -1 q-24 3 -22 41 l9 101 l0 16 l-12 -1 q-2 -104 -98 -175 q-2 -1 -3 0 q0 1 1 3 q79 66 79 172 l-4 0 q-10 -1 -22 -3 q1 1 -3 0 l-8 7 l37 2 q0 4 0 12 q1 10 1 15 q0 22 -2 38 ZM58 213 l23 -8 q2 0 2 -1 q0 0 -2 -2 l-3 -8 l-1 -38 l5 1 l10 10 l14 -11 q3 -3 -1 -4 l-28 -1 l-1 -44 q6 2 19 8 q8 3 12 5 q4 1 1 -2 q-4 -3 -12 -9 q-5 -2 -20 -14 l0 -22 l0 -46 q1 -30 -29 -46 q-2 -1 -3 -1 q-1 1 -1 4 q2 13 -8 20 q-2 4 1 4 q22 -1 20 9 l0 63 q-20 -15 -28 -23 q-2 -2 -2 -1 q0 -1 -1 1 l-8 26 q-1 1 0 1 q-1 0 1 1 q10 2 38 13 l0 51 l-8 0 q-17 -1 -26 -4 l-8 8 l42 2 l0 7 q0 34 -1 49 q0 2 1 2 q0 1 2 0 ZM177 196 q30 -11 29 -20 q-1 -9 -11 -14 q-9 -4 -10 4 q-3 18 -10 28 q-1 2 2 2 Z" /><glyph glyph-name="" unicode="&#x6280;" d="M143 158 q-14 0 -29 -2 l-7 7 l42 1 l1 19 q0 6 -1 15 q0 11 -1 15 l28 -7 q2 0 2 -1 q0 -2 -2 -3 q-3 -6 -4 -16 l0 -21 l35 1 l13 13 l17 -15 q1 -2 -1 -3 l-64 -2 l-1 -47 l20 1 l11 12 l23 -14 q2 -1 2 -1 q0 -1 -2 -2 l-7 -8 q-20 -38 -46 -65 q30 -26 78 -41 q2 -1 0 -4 q-14 -1 -32 -20 q-42 23 -63 49 q-32 -29 -87 -55 q-3 -1 -4 0 q-1 1 2 3 q46 28 80 64 q-16 26 -27 74 l-16 0 q-2 0 -3 3 q0 2 2 2 l46 1 l1 47 l-6 0 ZM60 213 l24 -8 q2 0 2 -1 q0 0 -2 -2 l-4 -8 l0 -37 l5 0 l10 11 l14 -12 q1 -3 -1 -4 l-28 -1 l-1 -42 q14 6 26 14 q1 0 2 -1 q0 -1 -1 -2 q-2 -2 -6 -5 q-9 -7 -21 -17 l0 -28 l1 -50 q0 -28 -30 -46 q-2 -1 -3 -1 q-1 1 -1 4 q1 14 -9 20 q-2 4 2 4 q21 -1 19 9 l0 71 q-18 -17 -26 -26 q-3 -1 -4 0 l-10 25 q0 2 1 2 q20 8 39 17 l1 51 l-9 0 q-13 -1 -26 -3 l-7 8 l42 1 l0 6 q0 13 -1 34 q0 11 0 15 q0 3 1 3 q1 0 1 -1 ZM193 108 l-71 -3 q14 -35 37 -58 q22 28 34 61 Z" /><glyph glyph-name="" unicode="&#x628a;" d="M116 196 l22 -12 l63 1 l9 12 l20 -11 q3 -1 0 -4 l-5 -8 l0 -65 l2 -3 q1 -2 -2 -2 q-20 0 -49 0 l-42 -1 l-1 -77 q0 -15 15 -16 q36 -2 62 4 q19 3 26 25 q1 2 3 1 q1 0 1 -2 q-4 -19 4 -23 q18 -18 -5 -28 q-36 -11 -82 -4 q-43 6 -42 61 l0 115 q0 10 -1 24 q0 8 0 11 q-1 3 2 2 ZM60 214 l23 -10 q3 0 1 -4 l-4 -7 l0 -35 l6 0 l12 13 l15 -13 q1 -3 -1 -3 l-32 -2 l-1 -50 q15 6 29 13 q4 1 1 -2 q-3 -2 -9 -7 q-7 -5 -21 -15 l0 -30 l0 -46 q1 -29 -28 -45 q-2 -1 -3 -1 q-1 1 -1 3 q2 15 -8 19 q-1 1 -1 2 q1 2 2 1 q19 -1 17 11 l1 69 q-21 -16 -29 -25 q-1 -1 -2 -1 q-1 0 -1 1 l-8 28 q-1 2 1 2 q10 2 39 13 l0 59 l-35 -2 q-3 -1 -3 1 q-1 2 2 4 l36 2 l1 6 q0 13 -1 34 q0 11 0 15 q0 3 2 2 ZM135 173 l-1 -64 l24 1 l0 69 l-19 -1 l-4 -5 ZM178 111 l23 0 l1 69 l-23 -1 l-1 -68 Z" /><glyph glyph-name="" unicode="&#x62c5;" d="M193 185 l10 14 l23 -16 q3 -1 0 -4 l-6 -7 l-1 -95 q1 -29 -19 -45 q-4 -3 -6 2 q-5 15 -8 20 l-48 -2 l0 -1 q-2 -11 -13 -22 q-3 -3 -5 -3 q-1 0 -2 3 l1 124 l-2 40 q0 3 4 2 l17 -13 l55 3 ZM58 208 l23 -8 q2 -1 0 -3 l-4 -8 l0 -37 l6 0 l11 13 l16 -13 q1 -3 -1 -4 l-32 -2 l-1 -48 q3 2 10 5 q11 5 17 8 q2 0 2 -1 q0 -1 -1 -2 q-6 -4 -18 -12 q-7 -6 -11 -8 l0 -29 l0 -43 q1 -30 -28 -46 q-4 -2 -4 3 q2 13 -7 20 q-2 3 1 4 q21 -3 18 9 l0 67 q-10 -8 -23 -19 q-3 -2 -4 -3 q-3 -3 -4 0 l-7 25 q-1 2 1 2 q14 3 37 12 l1 54 l-5 0 q-17 -1 -26 -4 l-8 8 l39 3 l0 6 q0 29 -2 50 q1 4 4 1 ZM138 177 l0 -52 l43 2 q3 0 3 -2 q0 -3 -3 -4 l-43 -2 l0 -62 l54 2 q1 2 1 3 l1 118 l-56 -3 ZM124 -15 q-14 0 -27 -2 l-8 8 l124 3 l17 16 l18 -18 q2 -2 -1 -2 l-123 -5 Z" /></font>
</defs>
</svg>
